<?xml version="1.0" encoding="utf-8"?>
<!-- Generator: Adobe Illustrator 16.0.0, SVG Export Plug-In . SVG Version: 6.00 Build 0)  -->
<!DOCTYPE svg PUBLIC "-//W3C//DTD SVG 1.1//EN" "http://www.w3.org/Graphics/SVG/1.1/DTD/svg11.dtd">
<svg version="1.1" id="Layer_1" xmlns="http://www.w3.org/2000/svg" xmlns:xlink="http://www.w3.org/1999/xlink" x="0px" y="0px"
	 width="1700.787px" height="1700.787px" viewBox="0 0 1700.787 1700.787" enable-background="new 0 0 1700.787 1700.787"
	 xml:space="preserve">
<path fill-rule="evenodd" clip-rule="evenodd" fill="#333333" d="M1679.723,504.601c-21.726-40.444-58.431-70.403-102.626-83.884
	c-44.197-13.48-90.641-8.987-131.842,12.731c-40.451,21.721-70.414,58.42-83.896,102.608c-8.989,29.209-9.737,59.917-2.997,89.126
	l-186.523,99.612c-56.931-79.391-145.322-134.813-246.451-148.295v-236.47c73.41-19.473,128.096-86.879,128.096-167.019
	C1053.482,77.893,976.326,0,880.441,0c-95.883,0-172.292,77.893-172.292,173.011c0,79.391,53.935,146.796,128.095,167.019v237.22
	C706.649,593.727,598.03,679.857,550.088,796.696l-204.502-54.674c0-29.958-7.491-59.168-23.222-86.131
	c-23.223-39.695-59.927-68.904-104.875-80.888C125.351,550.287,30.216,604.961,5.496,697.083
	c-11.236,43.438-5.244,89.875,17.978,130.318c23.222,40.444,59.929,68.905,104.873,80.889c14.982,3.744,29.964,5.992,44.946,5.992
	c29.964,0,59.179-7.49,86.146-23.219c26.967-14.979,47.942-36.699,62.924-62.915l204.502,54.675
	c-2.247,15.729-3.745,32.205-3.745,48.682c0,82.387,28.465,158.781,74.909,219.447l-226.62,226.578
	c-65.92-38.196-152.066-29.209-208.248,27.711c-67.419,67.406-67.419,176.757,0,244.162c33.709,33.704,77.905,50.183,122.102,50.183
	c44.196,0,88.393-16.479,122.103-50.183c56.182-56.172,65.171-142.303,27.716-208.211l226.619-226.578
	c60.677,47.185,136.335,74.895,219.485,74.895c83.147,0,158.809-28.459,219.483-74.895l227.818,227.777
	c-38.203,65.908-29.215,152.039,27.717,208.213c33.709,33.703,77.904,50.181,122.103,50.181s88.396-16.478,122.104-50.181
	c67.418-67.406,67.418-176.756,0-244.162c-56.182-56.172-142.328-65.16-208.248-27.711l-227.818-227.779
	c47.191-60.666,74.908-136.313,74.908-219.447c0-44.938-8.238-88.376-23.972-128.072l186.523-99.611
	c20.228,21.72,46.443,38.196,75.658,47.185c16.479,5.242,33.709,7.489,50.189,7.489c27.717,0,56.182-6.74,81.649-20.222
	c40.449-21.721,70.416-58.421,83.898-102.608C1706.685,591.479,1702.195,545.043,1679.723,504.601 M1566.608,658.887
	c-19.477,10.486-41.948,12.732-62.924,5.992c-20.977-6.74-38.953-20.972-49.438-40.444c-10.488-19.473-12.734-41.942-5.994-62.913
	c6.742-20.971,20.978-38.945,40.451-49.431c11.986-6.741,25.469-9.737,38.953-9.737c8.24,0,16.479,1.498,23.971,3.745
	c20.978,6.741,38.953,20.971,49.441,40.444c10.486,19.473,12.734,41.941,5.992,62.913
	C1600.318,631.174,1586.085,648.4,1566.608,658.887z M1149.364,932.259c0,147.545-120.605,268.129-268.177,268.129
	c-147.573,0-268.177-120.584-268.177-268.129c0-147.545,120.604-268.128,268.177-268.128
	C1028.759,664.13,1149.364,783.963,1149.364,932.259z M798.038,173.011c0-45.687,37.456-83.135,83.15-83.135
	c45.693,0,83.148,37.448,83.148,83.135s-37.455,83.134-83.148,83.134C835.493,256.145,798.038,218.698,798.038,173.011z
	 M151.57,821.411c-21.724-5.992-38.953-19.474-50.189-38.946c-11.237-19.473-14.233-41.193-8.241-62.913
	c11.986-44.188,57.68-70.402,101.877-58.419c21.724,5.992,38.953,19.473,50.189,38.946s14.233,41.193,8.24,62.913
	C241.461,807.181,195.767,833.395,151.57,821.411z M344.443,1585.745c-32.211,32.207-84.647,32.207-116.858,0
	c-32.21-32.205-32.21-84.633,0-116.838c16.48-16.479,37.456-23.968,58.429-23.968s42.698,8.238,58.429,23.968
	C376.654,1501.112,376.654,1553.54,344.443,1585.745z M1536.74,1470.108c32.211,32.205,32.211,84.635,0,116.838
	c-32.212,32.205-84.648,32.205-116.859,0c-32.211-32.203-32.211-84.633,0-116.838c16.48-16.479,37.455-23.967,58.432-23.967
	C1499.284,1445.392,1520.259,1453.631,1536.74,1470.108"/>
</svg>
