<?xml version="1.0" encoding="utf-8"?>
<!-- Generator: Adobe Illustrator 16.0.0, SVG Export Plug-In . SVG Version: 6.00 Build 0)  -->
<!DOCTYPE svg PUBLIC "-//W3C//DTD SVG 1.1//EN" "http://www.w3.org/Graphics/SVG/1.1/DTD/svg11.dtd">
<svg version="1.1" id="Layer_1" xmlns="http://www.w3.org/2000/svg" xmlns:xlink="http://www.w3.org/1999/xlink" x="0px" y="0px"
	 width="1700.787px" height="1700.787px" viewBox="0 0 1700.787 1700.787" enable-background="new 0 0 1700.787 1700.787"
	 xml:space="preserve">
<path fill="none" stroke="#333333" stroke-width="79.9999" stroke-miterlimit="2.6131" d="M1265.127,54.728
	c-33.941,33.297-66.853,69.167-97.844,104.487c-72.82,82.998-141.918,173.512-197.104,269.082
	c-47.643,82.508-93.575,184.594-99.229,282.066c13.264,20.446,26.107,41.089,38.466,61.918
	c46.996,79.201,95.304,175.645,119.686,272.213c65.938,49.063,147.751,78.154,236.263,78.154
	c217.77,0,394.984-176.098,394.977-392.479c-0.004-104.883-54.702-220.906-107.313-309.57
	c-55.237-93.095-122.687-181.508-193.625-263.355C1329.416,122.644,1297.762,87.545,1265.127,54.728z"/>
<path fill="none" stroke="#333333" stroke-width="79.9999" stroke-miterlimit="2.6131" d="M544.878,309.02
	c-42.975,42.16-84.647,87.578-123.888,132.301c-92.204,105.09-179.694,219.698-249.569,340.708
	C106.996,893.599,45.039,1033.442,45.039,1164.25c0,273.982,224.402,496.957,500.142,496.957
	c275.737,0,500.125-222.973,500.114-496.953c-0.004-132.801-69.262-279.708-135.877-391.973
	c-69.941-117.876-155.344-229.823-245.166-333.457C626.281,395.015,586.2,350.573,544.878,309.02z"/>
<path fill="none" stroke="#333333" stroke-width="79.9999" stroke-miterlimit="2.6131" d="M719.64,1072.451
	c-24.541-24.387-57.152-37.818-91.865-37.818c-30.509,0-59.395,10.382-82.628,29.447c-23.194-19.065-52.099-29.447-82.607-29.447
	c-34.692,0-67.324,13.435-91.846,37.802c-50.652,50.348-50.652,132.231,0,182.563l146.44,145.513
	c7.751,7.701,17.882,11.543,28.032,11.543c10.151,0,20.28-3.842,28.032-11.523l146.443-145.512
	C770.292,1204.666,770.292,1122.781,719.64,1072.451z"/>
<path fill-rule="evenodd" clip-rule="evenodd" fill="#333333" d="M1286.683,509.152c-27.027,0-49.141,32.959-49.141,73.241v146.483
	c0,40.283,22.112,73.241,49.141,73.241c27.025,0,49.142-32.958,49.142-73.241V582.394
	C1335.824,542.111,1313.71,509.152,1286.683,509.152"/>
<path fill-rule="evenodd" clip-rule="evenodd" fill="#333333" d="M1360.394,606.808h-147.422c-40.541,0-73.711,21.974-73.711,48.828
	c0,26.855,33.17,48.827,73.711,48.827h147.422c40.541,0,73.711-21.972,73.711-48.827
	C1434.104,628.78,1400.935,606.808,1360.394,606.808"/>
</svg>
