<?xml version="1.0" encoding="utf-8"?>
<!-- Generator: Adobe Illustrator 16.0.0, SVG Export Plug-In . SVG Version: 6.00 Build 0)  -->
<!DOCTYPE svg PUBLIC "-//W3C//DTD SVG 1.1//EN" "http://www.w3.org/Graphics/SVG/1.1/DTD/svg11.dtd">
<svg version="1.1" id="Layer_1" xmlns="http://www.w3.org/2000/svg" xmlns:xlink="http://www.w3.org/1999/xlink" x="0px" y="0px"
	 width="1700.787px" height="1700.787px" viewBox="0 0 1700.787 1700.787" enable-background="new 0 0 1700.787 1700.787"
	 xml:space="preserve">
<path fill-rule="evenodd" clip-rule="evenodd" fill="#333333" d="M886.576,1453.133c0-19.869,16.084-35.008,35.008-35.008
	l120.166-0.001c51.094,34.063,107.865,57.718,168.42,68.125c-2.838,0.945-4.729,1.894-7.568,1.894H920.638
	C902.659,1488.143,886.576,1473.002,886.576,1453.133 M801.417,1173.063h62.45c-6.623-22.709-11.355-46.363-14.193-70.021h-48.255
	c-18.924,0-35.009,16.086-35.009,35.01C766.41,1156.977,781.547,1173.063,801.417,1173.063z M545.909,359.853
	c-42.578-29.332-72.856-86.103-72.856-137.197c0-72.856,58.664-131.52,131.521-131.52s131.52,58.663,131.52,131.52
	c0,51.094-29.331,108.811-72.855,137.197c103.134,26.493,179.774,115.434,179.774,181.667c0,78.532-475.932,78.532-475.932,0
	C366.134,476.232,442.775,386.345,545.909,359.853z M538.34,533.95l67.18,66.232l67.179-66.232l-55.825-136.251h0.946l21.762-24.601
	c-10.408,3.784-21.762,5.677-33.117,5.677s-22.708-1.893-33.116-5.677l21.763,24.601h0.947L538.34,533.95z M1415.492,1623.445
	L1415.492,1623.445l-1.894-2.838c-0.944,0-1.893,0-2.838,0H190.182c-63.395,0-114.489-51.094-114.489-114.488V191.128
	c0-63.394,51.094-114.488,114.488-114.488H1410.76c63.396,0,114.487,51.094,114.487,114.488v488.024
	c27.439,17.031,52.986,36.9,76.644,59.609V191.128c0-105.026-85.156-191.129-191.132-191.129l-1220.577,0
	C85.156-0.001-0.001,85.156-0.001,191.128v1315.937c0,105.027,85.156,190.185,191.129,190.185h1220.58
	c15.142,0,29.332-1.894,43.525-5.677L1415.492,1623.445z M398.343,1013.158h449.439c1.893-23.656,5.676-46.363,12.3-70.021H399.29
	c-18.924,0-35.009,16.086-35.009,35.01C363.334,998.017,379.419,1013.158,398.343,1013.158z M398.343,694.292h630.161
	c12.301-9.462,25.547-17.978,38.793-25.547c34.063-19.871,70.965-35.009,109.758-44.472H398.344
	c-18.923,0-35.009,16.084-35.009,35.009C363.334,678.207,379.419,694.292,398.343,694.292z M398.343,853.25h494.855
	c12.302-24.6,26.492-48.254,43.523-70.017H398.343c-18.923,0-35.009,16.085-35.009,35.009
	C363.334,837.166,379.419,853.25,398.343,853.25z M1596.212,875.015c97.457,169.365,39.74,386.988-129.627,484.445
	c-169.365,97.457-386.043,39.74-484.445-129.627c-97.457-169.367-39.74-386.043,129.627-484.446
	C1281.134,646.982,1498.755,705.646,1596.212,875.015z M1545.119,904.345c-81.371-140.98-263.039-190.183-404.021-108.811
	c-140.982,81.373-190.186,263.041-107.865,404.023c81.371,140.979,263.039,190.184,404.021,108.811
	C1578.236,1226.995,1626.492,1045.326,1545.119,904.345z M1555.527,1337.699l-152.336,87.994l117.328,203.43l152.336-87.996
	L1555.527,1337.699z M1688.939,1568.568l-152.336,87.994c24.602,42.578,78.533,56.771,120.166,32.17
	C1698.402,1664.133,1713.541,1610.2,1688.939,1568.568"/>
</svg>
