<?xml version="1.0" encoding="utf-8"?>
<!-- Generator: Adobe Illustrator 16.0.0, SVG Export Plug-In . SVG Version: 6.00 Build 0)  -->
<!DOCTYPE svg PUBLIC "-//W3C//DTD SVG 1.1//EN" "http://www.w3.org/Graphics/SVG/1.1/DTD/svg11.dtd">
<svg version="1.1" id="Layer_1" xmlns="http://www.w3.org/2000/svg" xmlns:xlink="http://www.w3.org/1999/xlink" x="0px" y="0px"
	 width="1700.787px" height="1700.787px" viewBox="0 0 1700.787 1700.787" enable-background="new 0 0 1700.787 1700.787"
	 xml:space="preserve">
<path fill-rule="evenodd" clip-rule="evenodd" fill="#333333" d="M1020.474,1360.629c15.639,0,28.346-12.708,28.346-28.347
	c0-15.641-12.707-28.348-28.346-28.348H651.969c-15.641,0-28.347,12.707-28.347,28.348c0,15.639,12.707,28.347,28.347,28.347
	H1020.474z"/>
<path fill-rule="evenodd" clip-rule="evenodd" fill="#333333" d="M1162.203,1417.322H510.236c-15.64,0-28.347,12.707-28.347,28.346
	c0,15.642,12.708,28.349,28.347,28.349l651.967-0.001c15.641,0,28.348-12.707,28.348-28.348
	C1190.551,1430.029,1177.844,1417.322,1162.203,1417.322"/>
<path fill-rule="evenodd" clip-rule="evenodd" fill="#333333" d="M198.426,85.039c-62.558,0-113.385,50.828-113.385,113.386
	c0,62.558,50.828,113.386,113.385,113.386c62.558,0,113.386-50.828,113.386-113.386C311.811,135.868,260.983,85.039,198.426,85.039
	 M198.426,255.118c-31.279,0-56.693-25.414-56.693-56.692c0-31.279,25.414-56.693,56.693-56.693
	c31.278,0,56.693,25.414,56.693,56.693C255.119,229.704,229.704,255.118,198.426,255.118"/>
<path fill-rule="evenodd" clip-rule="evenodd" fill="#333333" d="M453.542,85.039c-62.558,0-113.385,50.828-113.385,113.386
	c0,62.558,50.828,113.386,113.385,113.386c62.56,0,113.386-50.828,113.386-113.386C566.93,135.868,516.101,85.039,453.542,85.039
	 M453.542,255.118c-31.277,0-56.692-25.414-56.692-56.692c0-31.279,25.414-56.693,56.692-56.693
	c31.279,0,56.693,25.414,56.693,56.693C510.236,229.704,484.822,255.118,453.542,255.118"/>
<path fill-rule="evenodd" clip-rule="evenodd" fill="#333333" d="M708.66,85.039c-62.558,0-113.386,50.828-113.386,113.386
	c0,62.558,50.828,113.386,113.386,113.386s113.386-50.828,113.386-113.385C822.047,135.868,771.219,85.039,708.66,85.039
	 M708.66,255.118c-31.278,0-56.692-25.414-56.692-56.692c0-31.279,25.414-56.693,56.692-56.693
	c31.279,0,56.693,25.414,56.693,56.693C765.354,229.704,739.939,255.118,708.66,255.118"/>
<path fill-rule="evenodd" clip-rule="evenodd" fill="#333333" d="M0,0v396.851v1303.937h1700.787V396.849V0H0z M56.693,56.693
	h1587.398v283.463H56.693V56.693z M1644.094,1644.093H56.693V396.849h1587.398v1247.244H1644.094z"/>
<path fill-rule="evenodd" clip-rule="evenodd" fill="#333333" d="M607.982,1127.504l-1.466,0.979l27.856,20.037
	c0.979,0.488,1.955,0.979,2.933,1.955c5.375,3.91,11.24,7.818,16.616,11.24c3.421,2.443,6.843,4.397,10.752,6.354
	c5.376,2.933,10.751,6.354,16.617,9.285c4.888,2.443,9.286,4.888,14.173,6.843c4.888,2.442,9.286,4.397,14.172,6.842
	c9.286,3.91,19.063,7.332,28.835,10.752c3.422,0.979,6.843,1.955,10.265,2.934c7.331,1.956,14.662,3.91,21.993,5.865
	c3.909,0.979,7.819,1.465,11.729,2.443c7.82,1.465,15.151,2.443,22.971,3.42c3.422,0.49,6.843,0.979,10.752,1.467
	c11.24,0.979,22.481,1.467,34.212,1.467c11.73,0,22.97-0.487,34.21-1.955c3.422-0.487,6.844-0.979,10.752-1.467
	c7.82-0.977,15.641-1.955,22.971-3.422c3.91-0.488,7.82-1.465,11.73-2.44c7.33-1.467,15.149-3.422,22.479-5.865
	c3.422-0.979,6.843-1.955,10.265-2.935c9.772-2.932,19.551-6.842,28.833-10.752c4.89-1.955,9.287-4.397,13.687-6.354
	c4.889-2.443,9.775-4.398,14.662-7.332c5.377-2.933,10.752-5.863,15.641-8.797c3.908-2.443,7.33-4.398,11.24-6.842
	c5.375-3.422,10.752-6.845,16.129-10.755c0.977-0.485,1.953-1.465,2.932-1.952l28.836-20.527l-1.467-1.465
	c76.73-67.444,125.604-166.17,125.604-276.624c0-203.313-165.191-368.503-368.503-368.503
	c-203.313,0-368.505,165.189-368.505,368.503C481.89,960.848,530.763,1060.059,607.982,1127.504 M774.64,1152.43
	c-11.24-2.934-22.48-6.354-33.723-10.264c-0.978-0.488-2.443-0.979-3.421-1.467c-11.241-4.396-22.482-9.285-32.745-15.15
	l68.911-37.633c21.016-11.729,34.211-33.723,34.211-57.67V982.35l-6.842-7.817c0-0.488-22.97-27.857-31.279-65.002l-3.91-13.195
	l-9.773-6.354l0.979-43.007l9.286-8.31V766.82v-3.421c0-0.979-1.956-21.993,12.707-38.121
	c13.196-14.662,38.122-22.482,72.333-22.482c33.723,0,59.137,7.82,72.331,22.482c14.662,16.128,12.708,37.144,12.708,37.632
	l-0.488,63.046l0.979,14.173l9.285,8.31v41.052c0,0.979-0.979,1.955-1.955,2.444l-14.174,4.396l-4.397,14.174
	c-6.354,19.551-15.15,37.633-26.879,53.762c-2.445,3.908-4.89,6.842-7.332,9.285l-6.843,8.797v48.873
	c0,24.926,13.685,47.405,36.167,58.647l73.309,36.654c-0.486,0-0.978,0.488-1.465,0.488c-10.265,5.377-20.527,9.772-30.791,13.684
	c-1.466,0.49-3.421,0.979-4.888,1.955c-10.752,3.91-21.991,7.332-33.233,10.265C874.83,1164.646,823.514,1164.646,774.64,1152.43z
	 M850.393,538.582c172.033,0,311.811,139.777,311.811,311.813c0,96.767-44.475,183.273-113.873,240.456
	c-1.467-0.979-2.934-1.955-3.91-2.443l-98.233-48.873c-2.935-1.467-4.889-4.887-4.889-8.309v-28.348
	c1.467-1.955,2.934-3.422,3.909-5.378c12.219-17.594,22.48-36.653,30.301-57.669c16.617-10.753,27.369-29.324,27.369-49.851v-41.055
	c0-11.729-3.422-23.459-10.265-33.231l0.001-47.408c0.979-10.263,1.955-47.896-25.902-79.663
	c-24.926-28.347-63.534-42.52-115.339-42.52c-51.807,0-90.417,14.173-115.341,42.52c-27.857,31.769-26.88,69.4-25.903,79.663v47.407
	c-6.842,9.773-10.263,21.016-10.263,33.231v41.055c0,16.127,6.354,30.79,17.594,42.029c9.286,32.258,24.925,57.672,34.211,70.379
	v27.855c0,3.422-1.955,6.354-4.887,7.819l-91.394,49.853c-0.978,0.487-1.955,1.465-2.933,1.955
	c-68.912-57.183-112.897-143.688-112.897-239.968C538.583,678.359,678.359,538.582,850.393,538.582"/>
</svg>
