<?xml version="1.0" encoding="utf-8"?>
<!-- Generator: Adobe Illustrator 16.0.0, SVG Export Plug-In . SVG Version: 6.00 Build 0)  -->
<!DOCTYPE svg PUBLIC "-//W3C//DTD SVG 1.1//EN" "http://www.w3.org/Graphics/SVG/1.1/DTD/svg11.dtd">
<svg version="1.1" id="Layer_1" xmlns="http://www.w3.org/2000/svg" xmlns:xlink="http://www.w3.org/1999/xlink" x="0px" y="0px"
	 width="1700.787px" height="1700.787px" viewBox="0 0 1700.787 1700.787" enable-background="new 0 0 1700.787 1700.787"
	 xml:space="preserve">
<path fill-rule="evenodd" clip-rule="evenodd" fill="#333333" d="M1197.06,1531.471c-15.275-3.982-30.55,5.313-34.201,20.584
	l-28.227,113.209c-3.984,15.271,5.313,30.543,20.588,34.524c2.323,0.664,4.647,0.998,6.973,0.998c12.619,0,24.24-8.633,27.563-21.58
	l28.226-113.209C1221.3,1550.727,1212.002,1535.122,1197.06,1531.471"/>
<path fill-rule="evenodd" clip-rule="evenodd" fill="#333333" d="M850.062,850.144c3.652,0,7.304-0.664,10.958-1.992
	l311.799-128.813c14.609-5.977,21.252-22.575,15.273-36.852c-5.978-14.607-22.578-21.248-37.189-15.272L850.062,791.05
	L56.782,462.711v-9.296c0-15.604-12.618-28.219-28.225-28.219C12.951,425.196,0,437.812,0,453.415v28.219
	c0,11.62,6.973,21.911,17.599,26.229l821.835,339.958C842.757,849.48,846.409,850.144,850.062,850.144"/>
<path fill-rule="evenodd" clip-rule="evenodd" fill="#333333" d="M1187.099,1254.258c-6.976-13.941-23.908-19.918-37.854-12.945
	c-53.793,26.56-143.779,57.435-270.957,61.75l-0.001-254.307c0-15.604-12.616-28.219-28.225-28.219
	c-15.606,0-28.226,12.614-28.226,28.219v253.975c-351.979-11.289-465.542-224.428-481.812-259.948V850.226
	c0-15.604-12.618-28.22-28.226-28.22c-15.605,0-28.225,12.616-28.225,28.22v198.198c0,3.652,0.664,7.305,1.993,10.623
	c4.98,12.285,125.517,301.115,564.825,301.115c153.409,0,260.995-37.185,324.087-68.392
	C1188.426,1285.135,1194.071,1268.202,1187.099,1254.258"/>
<path fill-rule="evenodd" clip-rule="evenodd" fill="#333333" d="M1275.092,1559.025c-15.604,0-28.225,12.615-28.225,28.219v84.99
	c0,15.604,12.617,28.219,28.225,28.219c15.608,0,28.226-12.614,28.226-28.219v-84.99
	C1303.317,1571.641,1290.698,1559.025,1275.092,1559.025"/>
<path fill-rule="evenodd" clip-rule="evenodd" fill="#333333" d="M1671.896,425.196c-15.604,0-28.225,12.615-28.225,28.219v9.296
	L1303.649,602.48v-51.127l379.207-157.031c10.625-4.315,17.6-14.607,17.6-26.229c0-11.62-6.975-21.911-17.6-26.227L861.021,2.241
	c-6.975-2.988-14.612-2.988-21.584,0L17.599,342.199C6.973,346.515,0,356.807,0,368.426c0,11.62,6.973,21.912,17.599,26.228
	l821.835,339.958c3.32,1.328,6.973,1.992,10.958,1.992s7.305-0.664,10.959-1.992l297.188-122.836
	c14.611-5.977,21.252-22.575,15.275-36.852c-5.979-14.607-22.58-21.248-36.859-15.271L850.062,677.841L102.273,368.426
	L850.063,59.011l747.787,309.415l-325.413,134.457L960.968,386.685c1.66-5.977,2.656-11.952,2.656-18.26
	c0-47.807-49.81-84.989-113.23-84.989c-63.423,0-113.23,37.183-113.23,84.989c0,47.806,49.81,84.99,113.23,84.99
	c28.226,0,53.794-7.636,73.384-20.251l323.422,120.844v90.634v721.167c-32.873,11.616-56.781,42.823-56.781,79.676
	c0,46.813,38.188,84.989,85.007,84.989c46.819,0,85.008-38.18,85.008-84.989c0-36.853-23.908-68.06-56.781-79.676v-160.687
	c81.354-61.418,110.574-143.088,111.902-146.739c0.995-2.986,1.659-5.976,1.659-9.296V850.89c0-15.604-12.619-28.22-28.227-28.22
	c-15.605,0-28.226,12.615-28.226,28.22v193.219c-4.979,11.951-21.916,49.134-56.78,85.652V663.897l379.207-156.036
	c10.627-4.316,17.6-14.607,17.6-26.228v-28.219C1700.123,437.813,1687.504,425.196,1671.896,425.196 M850.062,396.646
	c-34.534,0-56.782-16.932-56.782-28.219c0-11.62,21.916-28.22,56.782-28.22c34.533,0,56.781,16.932,56.781,28.22
	C906.843,380.046,884.595,396.646,850.062,396.646z M1275.092,1474.036c-15.604,0-28.225-12.616-28.225-28.221
	s12.617-28.219,28.225-28.219c15.608,0,28.226,12.614,28.226,28.219C1303.317,1461.088,1290.698,1474.036,1275.092,1474.036"/>
<path fill-rule="evenodd" clip-rule="evenodd" fill="#333333" d="M1387.659,1552.055c-3.652-15.271-19.26-24.566-34.2-20.584
	c-15.275,3.651-24.572,19.256-20.588,34.526l28.225,113.209c3.32,12.947,14.611,21.58,27.563,21.58c2.324,0,4.646-0.334,6.974-0.998
	c15.272-3.649,24.571-19.254,20.588-34.524L1387.659,1552.055z"/>
</svg>
