<?xml version="1.0" encoding="utf-8"?>
<!-- Generator: Adobe Illustrator 16.0.0, SVG Export Plug-In . SVG Version: 6.00 Build 0)  -->
<!DOCTYPE svg PUBLIC "-//W3C//DTD SVG 1.1//EN" "http://www.w3.org/Graphics/SVG/1.1/DTD/svg11.dtd">
<svg version="1.1" id="Layer_1" xmlns="http://www.w3.org/2000/svg" xmlns:xlink="http://www.w3.org/1999/xlink" x="0px" y="0px"
	 width="1785.827px" height="1785.827px" viewBox="0 0 1785.827 1785.827" enable-background="new 0 0 1785.827 1785.827"
	 xml:space="preserve">
<path fill="none" stroke="#333333" stroke-width="23.1123" stroke-miterlimit="2.6131" d="M1743.307,1743.307h-181.632v-204.62
	c0-74.483-8.887-110.061-60.545-110.061c-52.211,0-72.207,29.461-72.207,105.612v209.063H1247.29v-482.013h175.521v51.715
	c27.771-26.125,70.542-47.806,125.53-47.806c171.079,0,194.407,123.401,194.407,244.022L1743.307,1743.307z"/>
<path fill="none" stroke="#333333" stroke-width="23.1123" stroke-miterlimit="2.6131" d="M1097.319,1200.227
	c-56.653,0-102.758-46.137-102.758-102.834s46.104-102.834,102.758-102.834c56.655,0,102.761,46.137,102.761,102.834
	C1199.521,1154.647,1153.975,1200.227,1097.319,1200.227z"/>
<rect x="1006.228" y="1261.292" fill="none" stroke="#333333" stroke-width="23.1123" stroke-miterlimit="2.6131" width="181.631" height="482.015"/>
<circle fill="none" stroke="#333333" stroke-width="23.1123" stroke-miterlimit="2.6131" cx="498.876" cy="100.424" r="57.905"/>
<circle fill="none" stroke="#333333" stroke-width="23.1123" stroke-miterlimit="2.6131" cx="332.615" cy="100.424" r="57.905"/>
<circle fill="none" stroke="#333333" stroke-width="23.1117" stroke-miterlimit="2.6131" cx="733.36" cy="334.909" r="57.905"/>
<circle fill="none" stroke="#333333" stroke-width="23.1123" stroke-miterlimit="2.6131" cx="100.425" cy="334.909" r="57.904"/>
<path fill="none" stroke="#333333" stroke-width="23.1123" stroke-miterlimit="2.6131" d="M498.876,154.889
	c0,99.756,80.264,180.02,180.02,180.02"/>
<path fill="none" stroke="#333333" stroke-width="23.1123" stroke-miterlimit="2.6131" d="M335.481,154.889
	c0,99.756-80.263,180.02-180.021,180.02"/>
<circle fill="none" stroke="#333333" stroke-width="23.1123" stroke-miterlimit="2.6131" cx="498.876" cy="733.36" r="57.905"/>
<circle fill="none" stroke="#333333" stroke-width="23.1123" stroke-miterlimit="2.6131" cx="332.615" cy="733.36" r="57.905"/>
<circle fill="none" stroke="#333333" stroke-width="23.1123" stroke-miterlimit="2.6131" cx="733.36" cy="498.303" r="57.905"/>
<circle fill="none" stroke="#333333" stroke-width="23.1123" stroke-miterlimit="2.6131" cx="100.425" cy="498.303" r="57.904"/>
<path fill="none" stroke="#333333" stroke-width="23.1123" stroke-miterlimit="2.6131" d="M678.322,498.303
	c-99.756,0-180.02,80.264-180.02,180.02"/>
<path fill="none" stroke="#333333" stroke-width="23.1123" stroke-miterlimit="2.6131" d="M155.463,498.303
	c99.756,0,180.02,80.264,180.02,180.02"/>
<path fill="none" stroke="#333333" stroke-width="23.1117" stroke-miterlimit="2.6131" d="M1153.973,492.629
	c25.864,39.433,64.562,58.942,118.899,65.742l108.684,13.601l-94.271,55.771c-49.104,29.048-100.687,44.6-155.202,51.192
	c15.551,6.103,31.455,11.186,46.83,15.41c42.659,11.729,87.493,18.537,131.646,20.995c12.394,0.688,24.806,1.032,37.215,1.006
	c74.013-0.147,142.726-21.896,200.273-69.029c57.767-47.308,96.352-113.695,118.39-184.358
	c24.963-80.05,29.461-167.045,17.552-249.813l-0.384-2.652v-30.584l20.681-10.352c16.045-8.03,29.055-20.077,39.021-34.41
	l-115.669,40.278l87.958-104.364c2.091-2.479,4.138-5.026,6.126-7.633c-2.506,1.007-5.015,2.008-7.522,3.002
	c-16.191,6.41-32.587,12.588-49.203,17.864c-6.933,3.338-14.968,4.626-23.177,3.279h-6.354l-8.602-4.887
	c-27.865-15.833-78.921-40.447-110.724-40.165c-92.536,0.82-162.67,81.55-162.67,172.118v51.921l-44.868-9.084
	c-69.621-14.099-129.854-47.713-171.58-106.006c-3.518-4.914-6.823-9.883-9.938-14.91c-3.549,48.046,14.639,92.013,58.822,137.241
	l80.591,82.493l-113.679-19.429c-10.518-1.798-20.459-4.252-29.961-7.478c23.416,40.369,58.66,74.325,98.035,98.337l113.792,69.399
	H1201.4C1184.743,497.121,1169.057,495.95,1153.973,492.629z"/>
<path fill="none" stroke="#333333" stroke-width="23.1117" stroke-miterlimit="2.6131" d="M728.726,994.563H105.06
	c-34.999,0-62.539,27.539-62.539,62.539v623.666c0,34.998,27.54,62.539,62.539,62.539l286.875-0.002h149.749h187.042
	c34.999,0,62.539-27.539,62.539-62.537v-623.666C790.691,1022.103,763.725,994.563,728.726,994.563z"/>
<path fill="none" stroke="#333333" stroke-width="23.1117" stroke-miterlimit="2.6131" d="M416.605,1743.307v-237.104h-99.258
	v-99.834h99.832v-87.208c0-71.146,55.08-130.813,124.504-137.127h112.456v99.832h-99.833c-21.229,0-37.294,16.065-37.294,37.294
	v87.209h124.504v99.834H517.013v237.104H416.605z"/>
</svg>
