<?xml version="1.0" encoding="utf-8"?>
<!-- Generator: Adobe Illustrator 21.1.0, SVG Export Plug-In . SVG Version: 6.00 Build 0)  -->
<svg version="1.1" id="Capa_1" xmlns="http://www.w3.org/2000/svg" xmlns:xlink="http://www.w3.org/1999/xlink" x="0px" y="0px"
	 viewBox="0 0 58 58" style="enable-background:new 0 0 58 58;" xml:space="preserve">
<style type="text/css">
	.st0{fill:#7E7763;}
</style>
<g>
	<path class="st0" d="M54.3,37.8C54.8,35.9,55,34,55,32c0-9.1-4.6-17.4-12.4-22.2c-0.5-0.3-1.1-0.1-1.4,0.3
		c-0.3,0.5-0.1,1.1,0.3,1.4C48.7,16,53,23.6,53,32c0,1.7-0.2,3.5-0.6,5.1C52,37.1,51.5,37,51,37c-3.9,0-7,3.1-7,7s3.1,7,7,7
		s7-3.1,7-7C58,41.3,56.5,39,54.3,37.8z M51,49c-2.8,0-5-2.2-5-5s2.2-5,5-5s5,2.2,5,5S53.8,49,51,49z"/>
	<path class="st0" d="M38.2,54.2c-2.9,1.2-6,1.8-9.2,1.8c-6.4,0-12.5-2.6-17-7.1c1.2-1.3,2-3,2-4.9c0-3.9-3.1-7-7-7s-7,3.1-7,7
		s3.1,7,7,7c1.2,0,2.4-0.3,3.4-0.9C15.3,55.1,22,58,29,58c3.4,0,6.8-0.7,9.9-2c0.5-0.2,0.8-0.8,0.5-1.3C39.3,54.2,38.7,54,38.2,54.2
		z M2,44c0-2.8,2.2-5,5-5s5,2.2,5,5s-2.2,5-5,5S2,46.8,2,44z"/>
	<path class="st0" d="M4,31.2L4,31.2c0.6,0,1-0.4,1.1-0.9C5.8,20.2,12.7,11.8,22.3,9c0.9,2.9,3.5,5,6.7,5c3.9,0,7-3.1,7-7
		s-3.1-7-7-7s-7,3.1-7,7C11.4,9.9,3.9,19.1,3.1,30.1C3,30.7,3.4,31.2,4,31.2z M29,2c2.8,0,5,2.2,5,5s-2.2,5-5,5s-5-2.2-5-5
		S26.2,2,29,2z"/>
</g>
</svg>
