<?xml version="1.0" encoding="utf-8"?>
<!-- Generator: Adobe Illustrator 21.1.0, SVG Export Plug-In . SVG Version: 6.00 Build 0)  -->
<svg version="1.1" id="Layer_1" xmlns="http://www.w3.org/2000/svg" xmlns:xlink="http://www.w3.org/1999/xlink" x="0px" y="0px"
	 viewBox="0 0 512 512" style="enable-background:new 0 0 512 512;" xml:space="preserve">
<style type="text/css">
	.st0{fill:#7E7864;}
</style>
<g>
	<g>
		<path class="st0" d="M266,201.8c11.8,5,36.1,13.4,65.3,13.4c18.6,0,39.3-3.4,60-13.4c54.9-26.3,92.4-89.6,111.3-187.9
			c0.6-2.9-0.2-6-2-8.3c-1.8-2.4-4.6-3.8-7.5-4c-111.9-7.7-187.3,13.2-224,62.2c-35,46.7-23.2,103.3-17.8,122.3
			c-18.2,27.9-30.1,54.5-38,77.9c-7.8-21.6-20.3-37.8-34.4-49.9c0-13.9-2.8-47.2-29.3-71.3c-27.8-25.4-72.2-32.3-132.1-20.5
			c-2.9,0.6-5.5,2.4-7,4.9c-1.5,2.6-1.8,5.7-0.9,8.5c21.1,64.9,50.5,102.7,87.1,112.4c6.5,1.7,12.8,2.4,18.8,2.4
			c23.6,0,43-11.2,52.8-18.1c21.3,20.1,32.2,47.4,32.2,81.5c0,0.8,0.1,1.5,0.3,2.3c-2.8,19.7-3.1,36.2-2.6,48.6
			c-10.2-6-21.9-9.2-34.1-9.2c-23.6,0-45.3,12.3-57.6,32.1c-3.3-0.5-6.7-0.8-10.1-0.8C62,387,34,415,34,449.5
			C34,484,62,512,96.5,512h302.1c34.5,0,62.5-28,62.5-62.5s-28-62.5-62.5-62.5c-12.6,0-24.8,3.9-35,10.8
			c-11.1-36.5-45.1-62.9-84.8-62.9c-22.6,0-43.8,8.5-59.8,23.2c-0.2-15.1,1-35.7,6.4-59.9C231.3,271.9,243,238.3,266,201.8z
			 M285.8,76.3c31-41.3,96.2-59.7,194-54.6c-18.1,84.7-50.8,139-97.3,161.4c-42.2,20.3-85.6,8.3-104.6,1.1
			c16.6-23.1,37.8-46.9,65-70.5c4.3-3.8,4.8-10.3,1-14.7c-3.8-4.3-10.3-4.8-14.7-1c-25,21.7-45.2,43.7-61.6,65.2
			C264.2,140.7,263.8,105.6,285.8,76.3z M95.6,199.4c0.3,0,26.6,2.6,52.9,18.1c0.8,0.5,1.6,1,2.5,1.6c-10.8,6.5-29,14.2-48.8,8.9
			c-27-7.2-50.7-37.3-68.8-87.4c46.8-7.4,81.1-1.6,102.1,17.4c13.5,12.2,19,28,21.2,40.4c-29.8-16.8-58.6-19.8-59.2-19.8
			c-5.7-0.5-10.8,3.7-11.3,9.4C85.6,193.8,89.8,198.9,95.6,199.4z M221.5,387.5c12.3-19.7,33.8-31.7,57.4-31.7
			c35.6,0,65.3,27.8,67.6,63.4c0.3,4.4,3.2,8.1,7.4,9.3c4.2,1.2,8.7-0.3,11.3-3.8c8-10.7,20.2-16.8,33.5-16.8
			c23,0,41.7,18.7,41.7,41.7s-18.7,41.7-41.7,41.7H96.5c-23,0-41.7-18.7-41.7-41.7s18.7-41.7,41.7-41.7c4.2,0,8.4,0.6,12.4,1.9
			c5,1.6,10.4-0.9,12.6-5.6c7.6-16.7,24.4-27.5,42.7-27.5c14.4,0,27.8,6.5,36.8,17.8c2.2,2.8,5.7,4.3,9.2,3.9
			c1.7-0.2,3.3-0.8,4.7-1.7C218.7,395.1,221.3,391.5,221.5,387.5z"/>
	</g>
</g>
</svg>
