<?xml version="1.0" encoding="utf-8"?>
<!-- Generator: Adobe Illustrator 21.1.0, SVG Export Plug-In . SVG Version: 6.00 Build 0)  -->
<svg version="1.1" id="Layer_1" xmlns="http://www.w3.org/2000/svg" xmlns:xlink="http://www.w3.org/1999/xlink" x="0px" y="0px"
	 viewBox="0 0 411.2 420.8" style="enable-background:new 0 0 411.2 420.8;" xml:space="preserve">
<style type="text/css">
	.st0{fill:#7E7763;}
</style>
<g>
	<path class="st0" d="M399.3,60.8c-0.2,2.4,0.4,5.3-0.7,7.1c-21.4,35.9-42.9,71.6-64.4,107.3c-24.6,40.7-49.4,81.4-74.1,122.1
		c-10.2,16.9-20.5,33.7-30.8,50.5c-3.8,6.2-9.8,7.4-16.3,3c-13.9-9.5-27.7-19-41.6-28.5c-2.6-1.8-4.5-2.1-7.5,0
		c-13.5,9.4-27.4,18.3-41.1,27.4c-3,2-6.6,4.4-9.7,1.6c-1.9-1.7-2.7-5.5-2.7-8.4c-0.2-19.7-0.2-39.3,0-59c0-2.2,1-5.1,2.6-6.4
		c18.6-14.1,37.4-28,56.1-42c18.1-13.5,36.1-27,54.1-40.6c21.6-16.2,43.2-32.3,64.8-48.4c9.6-7.2,19.3-14.2,28.5-22.1
		c-7.6,3.9-15.2,7.9-22.8,11.9c-7.8,4.1-15.5,8.4-23.3,12.5c-16.4,8.6-32.8,17.1-49.1,25.7c-24.6,12.9-49.1,26-73.7,38.9
		c-17.9,9.4-35.9,18.8-53.8,28.2c-6.7,3.5-13.2,7.2-20,10.5c-1.5,0.7-4.3,0.6-5.6-0.3c-18-12.1-35.9-24.4-53.7-36.7
		c-1.7-1.2-2.9-3.1-4.3-4.6c0-2.7,0-5.3,0-8c3.6-2.3,6.9-5.4,10.8-6.8c37.7-13.8,75.6-27.2,113.4-40.8
		c39.6-14.3,79.2-28.6,118.9-42.9c34-12.3,67.9-24.6,101.8-36.9c13.1-4.8,26.1-9.7,39.1-14.5C396,60.8,397.6,60.8,399.3,60.8z"/>
</g>
</svg>
