<?xml version="1.0" encoding="utf-8"?>
<!-- Generator: Adobe Illustrator 21.1.0, SVG Export Plug-In . SVG Version: 6.00 Build 0)  -->
<svg version="1.1" id="Layer_1" xmlns="http://www.w3.org/2000/svg" xmlns:xlink="http://www.w3.org/1999/xlink" x="0px" y="0px"
	 viewBox="0 0 339.2 390" style="enable-background:new 0 0 339.2 390;" xml:space="preserve">
<style type="text/css">
	.st0{display:none;fill:#7E7864;}
	.st1{fill:#7E7763;}
</style>
<rect x="-248.1" y="-253.4" class="st0" width="910.4" height="942"/>
<g>
	<g>
		<polygon class="st1" points="2.9,82.3 2.7,147 58.9,114.8 		"/>
		<polygon class="st1" points="73.2,42 72.9,106.8 129.2,74.6 		"/>
		<polygon class="st1" points="2.6,163.2 2.4,228 58.6,195.8 		"/>
		<polygon class="st1" points="72.9,123 72.7,187.8 128.9,155.6 		"/>
		<polygon class="st1" points="143.2,82.7 142.9,147.5 199.2,115.3 		"/>
		<polygon class="st1" points="3.2,1.3 2.9,66.1 59.2,33.9 		"/>
		<polygon class="st1" points="2.3,244.2 2.1,309 58.3,276.8 		"/>
		<polygon class="st1" points="72.6,204 72.4,268.8 128.6,236.6 		"/>
		<polygon class="st1" points="142.9,163.7 142.7,228.5 198.9,196.3 		"/>
		<polygon class="st1" points="213.2,123.5 212.9,188.3 269.2,156.1 		"/>
		<polygon class="st1" points="2.1,325.2 1.8,390 58,357.8 		"/>
		<polygon class="st1" points="72.3,285 72.1,349.8 128.3,317.6 		"/>
		<polygon class="st1" points="142.6,244.7 142.4,309.5 198.6,277.3 		"/>
		<polygon class="st1" points="212.9,204.5 212.7,269.3 268.9,237.1 		"/>
		<polygon class="st1" points="283.2,164.2 282.9,229 339.2,196.8 		"/>
	</g>
</g>
</svg>
