<?xml version="1.0" encoding="utf-8"?>
<!-- Generator: Adobe Illustrator 21.1.0, SVG Export Plug-In . SVG Version: 6.00 Build 0)  -->
<svg version="1.1" id="Capa_1" xmlns="http://www.w3.org/2000/svg" xmlns:xlink="http://www.w3.org/1999/xlink" x="0px" y="0px"
	 viewBox="0 0 60 60" style="enable-background:new 0 0 60 60;" xml:space="preserve">
<style type="text/css">
	.st0{fill:#7E7763;}
</style>
<g>
	<path class="st0" d="M31,16H17v14h14V16z M29,28H19V18h10V28z"/>
	<path class="st0" d="M52,16H36c-0.6,0-1,0.4-1,1s0.4,1,1,1h16c0.6,0,1-0.4,1-1S52.6,16,52,16z"/>
	<path class="st0" d="M52,22H36c-0.6,0-1,0.4-1,1s0.4,1,1,1h16c0.6,0,1-0.4,1-1S52.6,22,52,22z"/>
	<path class="st0" d="M52,28H36c-0.6,0-1,0.4-1,1s0.4,1,1,1h16c0.6,0,1-0.4,1-1S52.6,28,52,28z"/>
	<path class="st0" d="M52,34H19c-0.6,0-1,0.4-1,1s0.4,1,1,1h33c0.6,0,1-0.4,1-1S52.6,34,52,34z"/>
	<path class="st0" d="M34,40H19c-0.6,0-1,0.4-1,1s0.4,1,1,1h15c0.6,0,1-0.4,1-1S34.6,40,34,40z"/>
	<path class="st0" d="M34,46H19c-0.6,0-1,0.4-1,1s0.4,1,1,1h15c0.6,0,1-0.4,1-1S34.6,46,34,46z"/>
	<path class="st0" d="M34,52H19c-0.6,0-1,0.4-1,1s0.4,1,1,1h15c0.6,0,1-0.4,1-1S34.6,52,34,52z"/>
	<path class="st0" d="M39,54h14V40H39V54z M41,42h10v10H41V42z"/>
	<path class="st0" d="M59,13L59,13V0H11v30H1v24c0,3.3,2.7,6,6,6h46c3.3,0,6-2.7,6-6V13L59,13z M57,2v10H13V2H57z M3,54V32h8v22
		c0,2.2-1.8,4-4,4S3,56.2,3,54z M53,58H11.5c0,0,0,0,0-0.1c0.2-0.2,0.4-0.5,0.6-0.7l0.1-0.1c0.2-0.3,0.3-0.6,0.4-0.8v-0.1
		c0.1-0.3,0.2-0.6,0.3-0.9v-0.1C13,54.7,13,54.4,13,54V30V14h44v40C57,56.2,55.2,58,53,58z"/>
	<path class="st0" d="M47,4H23v6h24V4z M45,8H25V6h20V8z"/>
</g>
</svg>
