<?xml version="1.0" encoding="UTF-8"?>
<svg width="87px" height="86px" viewBox="0 0 87 86" version="1.1" xmlns="http://www.w3.org/2000/svg" xmlns:xlink="http://www.w3.org/1999/xlink">
    <!-- Generator: Sketch 46.2 (44496) - http://www.bohemiancoding.com/sketch -->
    <title>Page 1</title>
    <desc>Created with Sketch.</desc>
    <defs></defs>
    <g id="Page-1" stroke="none" stroke-width="1" fill="none" fill-rule="evenodd" stroke-linecap="round" stroke-linejoin="round">
        <path d="M2,51.1521 L2,57.7231 C2,59.9881 3.835,61.8231 6.099,61.8231 L20.718,61.8231 C22.981,61.8231 24.817,63.6591 24.817,65.9231 L24.817,80.5411 C24.817,82.8051 26.652,84.6401 28.917,84.6401 L58.506,84.6401 C60.771,84.6401 62.605,82.8051 62.605,80.5411 L62.605,65.9231 C62.605,63.6591 64.441,61.8231 66.705,61.8231 L81.324,61.8231 C83.588,61.8231 85.424,59.9881 85.424,57.7231 L85.424,38.5381 L68.922,38.2591 C67.037,37.2951 66.46,54.2491 64.576,53.2841 C62.061,51.9961 61.139,33.7681 58.622,32.4801 C55.729,30.9991 55.822,58.5501 52.929,57.0691 C49.871,55.5041 51.373,32.0341 48.316,30.4691 C45.079,28.8121 45.185,59.6301 41.947,57.9721 C38.791,56.3561 40.738,31.9761 37.582,30.3601 C34.445,28.7551 34.548,58.6121 31.411,57.0061 C28.544,55.5381 29.209,33.8361 26.342,32.3671 C23.808,31.0701 23.89,55.1951 21.356,53.8971 C19.386,52.8881 15.784,45.0391 13.813,44.0301 C13.273,43.7541 2,44.0031 2,44.0031 L2,28.1341 C2,25.8701 3.835,24.0351 6.099,24.0351 L20.718,24.0351 C22.981,24.0351 24.817,22.1991 24.817,19.9351 L24.817,5.3161 C24.817,3.0521 26.652,1.2161 28.917,1.2161 L58.506,1.2161 C60.771,1.2161 62.605,3.0521 62.605,5.3161 L62.605,19.9351 C62.605,22.1991 64.441,24.0351 66.705,24.0351 L81.324,24.0351 C83.588,24.0351 85.424,25.8701 85.424,28.1341 L85.424,32.5571" stroke="#64D3C5" stroke-width="2.216"></path>
    </g>
</svg>
