<?xml version="1.0" encoding="UTF-8"?>
<svg width="78px" height="78px" viewBox="0 0 78 78" version="1.1" xmlns="http://www.w3.org/2000/svg" xmlns:xlink="http://www.w3.org/1999/xlink">
    <!-- Generator: Sketch 46.2 (44496) - http://www.bohemiancoding.com/sketch -->
    <title>Page 1</title>
    <desc>Created with Sketch.</desc>
    <defs></defs>
    <g id="Page-1" stroke="none" stroke-width="1" fill="none" fill-rule="evenodd">
        <g transform="translate(0.000000, -1.000000)">
            <g id="Group-3" transform="translate(0.000000, 0.072300)" fill="#205841">
                <path d="M77.0723,39.4639 C77.0723,60.7469 59.8183,77.9999 38.5363,77.9999 C17.2543,77.9999 0.0003,60.7469 0.0003,39.4639 C0.0003,18.1809 17.2543,0.9279 38.5363,0.9279 C59.8183,0.9279 77.0723,18.1809 77.0723,39.4639" id="Fill-1"></path>
            </g>
            <path d="M44.7871,12.3086 C47.0821,12.3086 48.9411,14.1686 48.9411,16.4636 C48.9411,18.7586 47.0821,20.6196 44.7871,20.6196 C42.4921,20.6196 40.6331,18.7586 40.6331,16.4636 C40.6331,14.1686 42.4921,12.3086 44.7871,12.3086" id="Fill-4" fill="#FFFFFF"></path>
            <path d="M32.916,12.3086 C35.211,12.3086 37.07,14.1686 37.07,16.4636 C37.07,18.7586 35.211,20.6196 32.916,20.6196 C30.621,20.6196 28.761,18.7586 28.761,16.4636 C28.761,14.1686 30.621,12.3086 32.916,12.3086" id="Fill-6" fill="#FFFFFF"></path>
            <path d="M61.5615,29.083 C63.8555,29.083 65.7165,30.943 65.7165,33.238 C65.7165,35.533 63.8555,37.393 61.5615,37.393 C59.2665,37.393 57.4065,35.533 57.4065,33.238 C57.4065,30.943 59.2665,29.083 61.5615,29.083" id="Fill-8" fill="#FFFFFF"></path>
            <path d="M16.3389,29.083 C18.6339,29.083 20.4939,30.943 20.4939,33.238 C20.4939,35.533 18.6339,37.393 16.3389,37.393 C14.0439,37.393 12.1839,35.533 12.1839,33.238 C12.1839,30.943 14.0439,29.083 16.3389,29.083" id="Fill-10" fill="#FFFFFF"></path>
            <path d="M44.7871,20.377 C44.7871,27.486 50.5391,33.238 57.6481,33.238" id="Stroke-12" stroke="#FFFFFF" stroke-width="1.45"></path>
            <path d="M33.1133,20.377 C33.1133,27.486 27.3613,33.238 20.2523,33.238" id="Stroke-14" stroke="#FFFFFF" stroke-width="1.45"></path>
            <path d="M44.7871,58.0757 C47.0821,58.0757 48.9411,59.9357 48.9411,62.2307 C48.9411,64.5257 47.0821,66.3857 44.7871,66.3857 C42.4921,66.3857 40.6331,64.5257 40.6331,62.2307 C40.6331,59.9357 42.4921,58.0757 44.7871,58.0757" id="Fill-16" fill="#FFFFFF"></path>
            <path d="M32.916,58.0757 C35.211,58.0757 37.07,59.9357 37.07,62.2307 C37.07,64.5257 35.211,66.3857 32.916,66.3857 C30.621,66.3857 28.761,64.5257 28.761,62.2307 C28.761,59.9357 30.621,58.0757 32.916,58.0757" id="Fill-18" fill="#FFFFFF"></path>
            <path d="M61.5615,41.3013 C63.8555,41.3013 65.7165,43.1613 65.7165,45.4563 C65.7165,47.7513 63.8555,49.6113 61.5615,49.6113 C59.2665,49.6113 57.4065,47.7513 57.4065,45.4563 C57.4065,43.1613 59.2665,41.3013 61.5615,41.3013" id="Fill-20" fill="#FFFFFF"></path>
            <path d="M16.3389,41.3013 C18.6339,41.3013 20.4939,43.1613 20.4939,45.4563 C20.4939,47.7513 18.6339,49.6113 16.3389,49.6113 C14.0439,49.6113 12.1839,47.7513 12.1839,45.4563 C12.1839,43.1613 14.0439,41.3013 16.3389,41.3013" id="Fill-22" fill="#FFFFFF"></path>
            <path d="M57.6484,45.4566 C50.5404,45.4566 44.7874,51.2086 44.7874,58.3176" id="Stroke-24" stroke="#FFFFFF" stroke-width="1.45"></path>
            <path d="M20.2529,45.4566 C27.3589,45.4566 33.1129,51.2086 33.1129,58.3176" id="Stroke-26" stroke="#FFFFFF" stroke-width="1.45"></path>
        </g>
    </g>
</svg>