<?xml version="1.0" encoding="UTF-8"?>
<svg width="41px" height="41px" viewBox="0 0 41 41" version="1.1" xmlns="http://www.w3.org/2000/svg" xmlns:xlink="http://www.w3.org/1999/xlink">
    <!-- Generator: Sketch 46.2 (44496) - http://www.bohemiancoding.com/sketch -->
    <title>Page 1</title>
    <desc>Created with Sketch.</desc>
    <defs></defs>
    <g id="Page-1" stroke="none" stroke-width="1" fill="none" fill-rule="evenodd">
        <g>
            <path d="M39.4004,20.0147 C39.4004,30.7207 30.7204,39.4007 20.0144,39.4007 C9.3084,39.4007 0.6294,30.7207 0.6294,20.0147 C0.6294,9.3087 9.3084,0.6297 20.0144,0.6297 C30.7204,0.6297 39.4004,9.3087 39.4004,20.0147 Z" id="Stroke-1" stroke="#000000" stroke-width="1.259" stroke-linecap="round" stroke-linejoin="round"></path>
            <path d="M34.1748,16.125 C33.7438,16.959 33.3208,17.797 32.8788,18.626 C32.5218,19.297 32.1418,19.956 31.7758,20.622 C31.5178,21.089 31.1288,21.361 30.5998,21.436 C30.4058,21.463 30.2138,21.505 30.0188,21.514 C29.4318,21.541 28.9958,21.281 28.6758,20.794 C28.6128,20.7 28.5098,20.623 28.4078,20.565 C27.4948,20.057 26.5768,19.556 25.6628,19.047 C24.5798,18.443 24.5538,17.002 25.6248,16.377 C26.0858,16.107 26.5808,16.134 27.0568,16.367 C27.3198,16.495 27.5708,16.645 27.8758,16.755 C27.7848,16.525 27.7028,16.291 27.6028,16.064 C26.8948,14.485 25.8498,13.17 24.4568,12.145 C23.1048,11.15 21.5958,10.531 19.9198,10.322 C18.9618,10.202 18.0098,10.222 17.0608,10.374 C16.1548,10.518 15.2918,10.796 14.4638,11.189 C13.1568,11.812 12.0398,12.682 11.1258,13.796 C10.0158,15.146 9.3098,16.693 9.0218,18.428 C8.7128,20.286 8.9298,22.083 9.6558,23.807 C10.3668,25.495 11.4778,26.881 12.9708,27.953 C14.5968,29.12 16.4118,29.72 18.4088,29.789 C18.6328,29.796 18.8628,29.814 19.0778,29.875 C19.8018,30.073 20.2378,30.726 20.1598,31.462 C20.0798,32.218 19.5238,32.775 18.7608,32.808 C17.8548,32.845 16.9558,32.737 16.0678,32.556 C14.7728,32.291 13.5488,31.834 12.4008,31.184 C10.9918,30.385 9.7708,29.36 8.7438,28.102 C7.9778,27.162 7.3538,26.136 6.8768,25.023 C6.3358,23.762 6.0208,22.437 5.9008,21.071 C5.8928,20.99 5.8698,20.91 5.8548,20.83 L5.8548,19.201 C5.8698,19.121 5.8928,19.041 5.8998,18.959 C5.9808,18.057 6.1398,17.167 6.4058,16.301 C6.8648,14.813 7.5648,13.449 8.5198,12.214 C9.6268,10.782 10.9678,9.63 12.5568,8.764 C14.4038,7.757 16.3818,7.238 18.4838,7.216 C19.7788,7.203 21.0488,7.372 22.2958,7.741 C23.4078,8.07 24.4568,8.538 25.4358,9.148 C26.6768,9.924 27.7578,10.89 28.6698,12.04 C29.4468,13.019 30.0758,14.083 30.5378,15.246 C30.6358,15.492 30.7298,15.74 30.8408,16.025 C31.0608,15.65 31.2378,15.312 31.4508,14.996 C31.8848,14.35 32.8618,14.203 33.5038,14.644 C33.8628,14.892 34.0288,15.246 34.1748,15.627 L34.1748,16.125 Z" id="Fill-3" fill="#000000"></path>
        </g>
    </g>
</svg>
