<?xml version="1.0" encoding="UTF-8"?>
<svg width="125px" height="131px" viewBox="0 0 125 131" version="1.1" xmlns="http://www.w3.org/2000/svg" xmlns:xlink="http://www.w3.org/1999/xlink">
    <!-- Generator: Sketch 46.2 (44496) - http://www.bohemiancoding.com/sketch -->
    <title>Page 1</title>
    <desc>Created with Sketch.</desc>
    <defs></defs>
    <g id="Page-1" stroke="none" stroke-width="1" fill="none" fill-rule="evenodd">
        <g fill="#64D3C5">
            <path d="M28.6162,92.3489 C25.3642,92.3489 22.6002,93.4879 20.3232,95.7639 C18.0482,98.0419 16.9092,100.8049 16.9092,104.0579 C16.9092,107.3109 18.0472,110.0739 20.3232,112.3519 C22.6002,114.6279 25.3652,115.7659 28.6162,115.7659 C31.8142,115.7659 34.5642,114.6279 36.8682,112.3519 C39.1712,110.0769 40.3222,107.3109 40.3222,104.0579 C40.3222,100.8049 39.1712,98.0439 36.8682,95.7639 C34.5642,93.4899 31.8142,92.3489 28.6162,92.3489" id="Fill-1"></path>
            <path d="M26.0151,67.6369 C26.0151,64.0599 24.7421,60.9989 22.1941,58.4489 C19.6471,55.9029 16.5841,54.6289 13.0081,54.6289 C9.4311,54.6289 6.3691,55.9029 3.8211,58.4489 C1.2741,60.9969 0.0001,64.0589 0.0001,67.6369 C0.0001,71.2129 1.2731,74.2739 3.8211,76.8229 C6.3691,79.3699 9.4311,80.6439 13.0081,80.6439 C16.5841,80.6439 19.6471,79.3699 22.1941,76.8229 C24.7421,74.2759 26.0151,71.2129 26.0151,67.6369" id="Fill-3"></path>
            <path d="M101.4551,37.7219 C103.2421,37.7219 104.7761,37.0839 106.0491,35.8109 C107.3211,34.5369 107.9591,33.0049 107.9591,31.2169 C107.9591,29.4279 107.3211,27.8979 106.0491,26.6239 C104.7751,25.3499 103.2421,24.7129 101.4551,24.7129 C99.6661,24.7129 98.1351,25.3519 96.8611,26.6239 C95.5881,27.8979 94.9511,29.4279 94.9511,31.2169 C94.9511,33.0059 95.5881,34.5369 96.8611,35.8109 C98.1351,37.0849 99.6661,37.7219 101.4551,37.7219" id="Fill-5"></path>
            <path d="M28.6172,16.9104 C24.6602,16.9104 21.2862,18.3064 18.4952,21.0974 C15.7032,23.8874 14.3092,27.2614 14.3092,31.2174 C14.3092,35.1754 15.7032,38.5474 18.4952,41.3394 C21.2872,44.1314 24.6612,45.5254 28.6172,45.5254 C32.5732,45.5254 35.9472,44.1304 38.7382,41.3394 C41.5282,38.5474 42.9242,35.1744 42.9242,31.2174 C42.9242,27.2614 41.5292,23.8874 38.7382,21.0974 C35.9472,18.3064 32.5732,16.9104 28.6172,16.9104" id="Fill-7"></path>
            <path d="M122.5918,62.1086 C121.0738,60.5906 119.2318,59.8326 117.0648,59.8326 C114.8958,59.8326 113.0528,60.5906 111.5348,62.1086 C110.0198,63.6266 109.2618,65.4686 109.2618,67.6376 C109.2618,69.8046 110.0198,71.6506 111.5348,73.1656 C113.0538,74.6826 114.8958,75.4406 117.0648,75.4406 C119.2318,75.4406 121.0738,74.6826 122.5918,73.1656 C124.1098,71.6486 124.8648,69.8046 124.8648,67.6376 C124.8648,65.4696 124.1108,63.6276 122.5918,62.1086" id="Fill-9"></path>
            <path d="M101.4551,94.9524 C98.9601,94.9524 96.8201,95.8464 95.0311,97.6354 C93.2441,99.4214 92.3501,101.5634 92.3501,104.0574 C92.3501,106.5504 93.2441,108.6924 95.0311,110.4814 C96.8201,112.2704 98.9611,113.1634 101.4551,113.1634 C103.9481,113.1634 106.0881,112.2684 107.8771,110.4814 C109.6661,108.6924 110.5601,106.5524 110.5601,104.0574 C110.5601,101.5634 109.6661,99.4244 107.8771,97.6354 C106.0901,95.8454 103.9481,94.9524 101.4551,94.9524" id="Fill-11"></path>
            <path d="M65.0352,109.258 C62.1632,109.258 59.7102,110.278 57.6782,112.31 C55.6452,114.342 54.6282,116.793 54.6282,119.666 C54.6282,122.538 55.6442,124.99 57.6782,127.023 C59.7102,129.056 62.1612,130.072 65.0352,130.072 C67.9082,130.072 70.3602,129.056 72.3922,127.023 C74.4262,124.99 75.4412,122.538 75.4412,119.666 C75.4412,116.793 74.4262,114.342 72.3922,112.31 C70.3602,110.278 67.9082,109.258 65.0352,109.258" id="Fill-13"></path>
            <path d="M65.0352,0.0002 C60.7002,0.0002 57.0142,1.5172 53.9782,4.5522 C50.9432,7.5872 49.4272,11.2732 49.4272,15.6082 C49.4272,19.9442 50.9432,23.6292 53.9782,26.6642 C57.0142,29.6992 60.6992,31.2172 65.0352,31.2172 C69.3722,31.2172 73.0562,29.6992 76.0922,26.6642 C79.1252,23.6302 80.6422,19.9442 80.6422,15.6082 C80.6422,11.2732 79.1252,7.5882 76.0922,4.5522 C73.0562,1.5182 69.3722,0.0002 65.0352,0.0002" id="Fill-15"></path>
        </g>
    </g>
</svg>
