<?xml version="1.0" encoding="UTF-8"?>
<svg width="41px" height="41px" viewBox="0 0 41 41" version="1.1" xmlns="http://www.w3.org/2000/svg" xmlns:xlink="http://www.w3.org/1999/xlink">
    <!-- Generator: Sketch 46.2 (44496) - http://www.bohemiancoding.com/sketch -->
    <title>Page 1</title>
    <desc>Created with Sketch.</desc>
    <defs>
        <polygon id="path-1" points="0 40.0303 40.03 40.0303 40.03 0.0003 0 0.0003"></polygon>
    </defs>
    <g id="Page-1" stroke="none" stroke-width="1" fill="none" fill-rule="evenodd">
        <g>
            <path d="M39.4004,20.0147 C39.4004,30.7207 30.7214,39.4007 20.0154,39.4007 C9.3094,39.4007 0.6294,30.7207 0.6294,20.0147 C0.6294,9.3087 9.3094,0.6297 20.0154,0.6297 C30.7214,0.6297 39.4004,9.3087 39.4004,20.0147 Z" id="Stroke-1" stroke="#000000" stroke-width="1.259" stroke-linecap="round" stroke-linejoin="round"></path>
            <path d="M27.125,30.5039 L27.377,30.5249 C27.474,30.0079 27.653,29.4909 27.656,28.9739 C27.679,24.8999 27.679,20.8289 27.655,16.7559 C27.652,16.2409 27.464,15.7279 27.362,15.2139 C27.264,15.2109 27.166,15.2069 27.067,15.2039 C26.96,15.5929 26.783,15.9789 26.759,16.3729 C26.704,17.2979 26.713,18.2269 26.712,19.1529 C26.708,22.2989 26.704,25.4439 26.716,28.5899 C26.719,29.2519 26.671,29.9419 27.125,30.5039 L27.125,30.5039 Z M12.672,30.5379 C12.746,30.5329 12.819,30.5279 12.893,30.5249 C13.349,29.9529 13.308,29.2449 13.31,28.5649 C13.32,24.9669 13.316,21.3689 13.312,17.7719 C13.312,17.2749 13.326,16.7719 13.261,16.2809 C13.212,15.9159 13.048,15.5659 12.935,15.2089 C12.843,15.2159 12.75,15.2239 12.659,15.2309 C12.559,15.7249 12.374,16.2179 12.372,16.7129 C12.349,20.8309 12.349,24.9489 12.374,29.0669 C12.377,29.5579 12.568,30.0469 12.672,30.5379 L12.672,30.5379 Z M25.77,22.8929 C25.77,21.0139 25.799,19.1349 25.752,17.2569 C25.738,16.7119 25.591,16.1329 25.355,15.6409 C25.077,15.0579 24.492,15.0549 24.218,15.6399 C23.977,16.1539 23.823,16.7599 23.818,17.3269 C23.784,21.0389 23.785,24.7509 23.817,28.4619 C23.822,29.0079 23.967,29.5909 24.197,30.0869 C24.482,30.7029 25.09,30.7009 25.375,30.0839 C25.605,29.5879 25.739,29.0069 25.753,28.4609 C25.797,26.6059 25.77,24.7489 25.77,22.8929 L25.77,22.8929 Z M14.255,22.8219 C14.255,24.7009 14.224,26.5809 14.273,28.4579 C14.289,29.0249 14.442,29.6259 14.684,30.1399 C14.939,30.6859 15.524,30.6869 15.79,30.1459 C16.03,29.6539 16.2,29.0749 16.205,28.5329 C16.24,24.7749 16.239,21.0179 16.206,17.2609 C16.201,16.7169 16.046,16.1339 15.809,15.6419 C15.528,15.0569 14.949,15.0569 14.67,15.6389 C14.435,16.1309 14.287,16.7099 14.273,17.2549 C14.226,19.1089 14.255,20.9669 14.255,22.8219 L14.255,22.8219 Z M21.957,22.9209 C21.957,21.0209 21.978,19.1199 21.949,17.2199 C21.932,16.0539 21.055,15.1929 19.988,15.2119 C18.939,15.2289 18.084,16.0659 18.077,17.2009 C18.054,20.9789 18.062,24.7569 18.074,28.5359 C18.076,29.3149 18.419,29.9359 19.126,30.3089 C20.444,31.0029 21.925,30.0629 21.95,28.4849 C21.98,26.6309 21.957,24.7749 21.957,22.9209 L21.957,22.9209 Z M11.429,14.3579 L28.596,14.3579 L28.596,15.1349 C28.596,20.1829 28.597,25.2309 28.595,30.2779 C28.595,31.7379 27.908,32.4229 26.422,32.4239 C22.144,32.4279 17.866,32.4289 13.587,32.4239 C12.113,32.4219 11.43,31.7319 11.429,30.2639 C11.428,25.2159 11.429,20.1679 11.429,15.1199 L11.429,14.3579 Z" id="Fill-3" fill="#000000"></path>
            <mask id="mask-2" fill="white">
                <use xlink:href="#path-1"></use>
            </mask>
            <g id="Clip-6"></g>
            <path d="M18.108,9.4753 L21.917,9.4753 L21.917,8.5743 L18.108,8.5743 L18.108,9.4753 Z M10.491,13.2573 C10.491,12.5433 10.436,11.8643 10.504,11.1973 C10.609,10.1783 11.386,9.5383 12.471,9.5223 C13.691,9.5043 14.91,9.5183 16.226,9.5183 C16.226,9.2433 16.221,9.0253 16.226,8.8073 C16.245,7.8933 16.534,7.6083 17.466,7.6053 C19.072,7.6013 20.679,7.6043 22.286,7.6043 C23.581,7.6043 23.761,7.7793 23.801,9.0773 C23.805,9.1883 23.819,9.2983 23.837,9.5173 L25.923,9.5173 C26.488,9.5173 27.055,9.5013 27.62,9.5223 C28.68,9.5633 29.446,10.2393 29.533,11.2633 C29.588,11.9103 29.543,12.5653 29.543,13.2573 L10.491,13.2573 Z" id="Fill-5" fill="#000000" mask="url(#mask-2)"></path>
        </g>
    </g>
</svg>
