<?xml version="1.0" encoding="UTF-8"?>
<svg width="77px" height="91px" viewBox="0 0 77 91" version="1.1" xmlns="http://www.w3.org/2000/svg" xmlns:xlink="http://www.w3.org/1999/xlink">
    <!-- Generator: Sketch 46.2 (44496) - http://www.bohemiancoding.com/sketch -->
    <title>Page 1</title>
    <desc>Created with Sketch.</desc>
    <defs>
        <polygon id="path-1" points="106.85 0.1494 106.85 107 0 107 0 0.149 106.85 0.149 0.0001 0.1494 0.0001 107.000236 106.850114 107.000236 106.850114 0.1494"></polygon>
    </defs>
    <g id="Page-1" stroke="none" stroke-width="1" fill="none" fill-rule="evenodd">
        <g transform="translate(-15.000000, -9.000000)">
            <g id="Group-3" transform="translate(0.000000, 0.851000)">
                <mask id="mask-2" fill="white">
                    <use xlink:href="#path-1"></use>
                </mask>
                <g id="Clip-2"></g>
                <path d="M102.9971,53.5864 L102.9971,40.0334 C102.9971,30.2944 102.9941,20.5554 103.0011,10.8154 C103.0021,9.3454 102.6451,7.9894 101.7751,6.8004 C100.4091,4.9324 98.5511,4.0014 96.2331,4.0014 C67.7021,4.0004 39.1691,4.0004 10.6381,4.0004 C10.5581,4.0004 10.4771,4.0014 10.3971,4.0024 C9.3641,4.0124 8.3751,4.2324 7.4711,4.7274 C5.0791,6.0334 3.8531,8.0644 3.8531,10.7914 C3.8481,39.3154 3.8501,67.8384 3.8501,96.3604 C3.8501,96.4684 3.8491,96.5754 3.8521,96.6824 C3.8931,98.1354 4.3441,99.4494 5.2481,100.5864 C6.6301,102.3204 8.4491,103.1504 10.6681,103.1494 C39.1731,103.1464 67.6791,103.1484 96.1841,103.1484 C96.2371,103.1484 96.2911,103.1484 96.3441,103.1474 C98.3851,103.1274 100.0841,102.3554 101.4151,100.8094 C102.5201,99.5264 103.0011,98.0194 103.0011,96.3304 C102.9951,82.0824 102.9971,67.8344 102.9971,53.5864 M0.0001,97.1904 L0.0001,9.9884 C0.0171,9.9024 0.0401,9.8174 0.0471,9.7324 C0.2371,7.4854 1.0621,5.4964 2.5401,3.8044 C4.6711,1.3634 7.3841,0.1534 10.6221,0.1524 C31.1071,0.1494 51.5921,0.1504 72.0771,0.1504 C80.1321,0.1504 88.1861,0.1524 96.2421,0.1494 C97.7481,0.1494 99.2151,0.3904 100.5751,1.0404 C104.6471,2.9914 106.8271,6.2444 106.8311,10.7624 C106.8611,39.3114 106.8461,67.8584 106.8481,96.4074 C106.8481,97.9244 106.6021,99.3994 105.9411,100.7654 C103.9851,104.8084 100.7421,106.9774 96.2471,106.9824 C67.6981,107.0114 39.1501,106.9984 10.6011,106.9894 C9.9281,106.9894 9.2461,106.9284 8.5821,106.8134 C4.4951,106.1004 1.1521,102.8894 0.2701,98.8454 C0.1521,98.2994 0.0891,97.7414 0.0001,97.1904" id="Fill-1" fill="#000000" mask="url(#mask-2)"></path>
            </g>
            <path d="M45.4727,38.2958 C51.9007,46.8288 58.2977,55.3218 64.7157,63.8418 C64.7757,63.7588 64.8367,63.6778 64.8937,63.5938 C70.0897,55.9708 75.2857,48.3468 80.4757,40.7198 C80.6117,40.5198 80.7517,40.4488 80.9917,40.4558 C82.5677,40.5008 84.1437,40.5498 85.7207,40.5568 C86.6907,40.5618 87.6617,40.4928 88.6317,40.4598 C88.8997,40.4508 89.1757,40.7168 89.1787,40.9858 C89.1827,41.4848 89.1807,41.9838 89.1797,42.4828 C89.1797,42.7978 88.9647,43.0298 88.6487,43.0578 C88.0187,43.1118 87.3897,43.1778 86.7587,43.2148 C85.5297,43.2858 84.5737,43.8808 83.7197,44.7168 C82.5547,45.8548 81.5497,47.1278 80.5797,48.4258 C77.0847,53.1088 73.6137,57.8078 70.1287,62.4978 C69.1307,63.8418 68.1187,65.1768 67.1127,66.5158 C66.7447,67.0028 66.7437,67.1118 67.1017,67.6308 C67.9597,68.8678 68.8167,70.1048 69.6737,71.3418 C73.9397,77.4978 78.2127,83.6498 82.4667,89.8138 C83.3757,91.1318 84.1937,92.5138 85.1017,93.8328 C85.6147,94.5788 86.2137,95.2678 86.7937,95.9648 C87.3447,96.6258 88.0797,96.9258 88.9287,96.9718 C89.6127,97.0088 90.2967,97.0528 90.9817,97.0858 C91.3297,97.1038 91.5547,97.3238 91.5557,97.6698 C91.5567,98.1958 91.5567,98.7218 91.5557,99.2468 C91.5547,99.6018 91.3337,99.8118 90.9727,99.8028 C88.8447,99.7538 86.7157,99.6698 84.5877,99.6648 C82.8777,99.6608 81.1677,99.7508 79.4577,99.8078 C79.2667,99.8138 79.1527,99.7658 79.0487,99.5988 C77.5967,97.2738 76.1537,94.9418 74.6747,92.6328 C73.7577,91.2008 72.7847,89.8058 71.8317,88.3968 C68.5727,83.5808 65.3117,78.7668 62.0517,73.9508 C61.9967,73.8708 61.9397,73.7918 61.8567,73.6758 C61.7627,73.8038 61.6807,73.9138 61.5987,74.0238 C55.5227,82.1718 50.0657,90.7258 44.8787,99.4578 C44.7117,99.7378 44.5447,99.8218 44.2297,99.7978 C41.6757,99.6068 39.1197,99.6078 36.5657,99.7918 C36.0167,99.8318 35.7917,99.6158 35.7917,99.0638 C35.7917,98.5908 35.7907,98.1188 35.7927,97.6468 C35.7937,97.3418 36.0347,97.1088 36.3387,97.0858 C37.1907,97.0208 38.0427,96.9608 38.8917,96.8698 C39.6357,96.7908 40.2527,96.4328 40.7947,95.9268 C41.7517,95.0328 42.5487,94.0038 43.3087,92.9488 C47.4547,87.1988 51.5907,81.4418 55.7257,75.6828 C56.9877,73.9248 58.2337,72.1548 59.4947,70.3968 C59.6137,70.2298 59.6207,70.1198 59.5207,69.9298 C58.5737,68.1248 57.2177,66.6138 56.0227,64.9858 C53.3407,61.3318 50.6767,57.6638 47.9997,54.0058 C43.9307,48.4458 39.6467,43.0568 35.1027,37.8768 C34.9317,37.6818 34.8927,37.5218 34.9857,37.2858 C35.1067,36.9818 35.1927,36.6628 35.2757,36.4058 C35.9277,36.4058 36.5507,36.3838 37.1707,36.4098 C39.1437,36.4948 41.1067,36.4238 43.0537,36.0718 C45.5547,35.6218 47.8647,34.7298 49.8527,33.1028 C52.0337,31.3178 53.3377,29.0178 53.8347,26.2598 C54.2207,24.1218 54.2217,21.9858 53.6487,19.8768 C52.9247,17.2088 51.2477,15.3158 48.8387,14.0288 C47.0867,13.0938 45.2047,12.5918 43.2407,12.3828 C39.5927,11.9948 36.0067,12.3128 32.4827,13.3378 C32.2187,13.4138 32.1127,13.5588 32.0857,13.7938 C31.9917,14.6248 31.8447,15.4558 31.8247,16.2888 C31.7277,20.3408 31.6137,24.3948 31.6007,28.4468 C31.5727,37.1518 31.5927,45.8578 31.6167,54.5638 C31.6217,56.8608 31.6837,59.1598 31.7757,61.4568 C31.8057,62.2408 31.9837,63.0228 32.1337,63.7978 C32.2467,64.3818 32.6417,64.7538 33.1797,64.9958 C33.9487,65.3418 34.7657,65.4638 35.5927,65.5248 C36.8447,65.6178 38.0987,65.6818 39.3527,65.7538 C39.7207,65.7748 39.8927,65.9488 39.8937,66.3168 C39.8937,66.8428 39.8947,67.3678 39.8927,67.8948 C39.8917,68.2218 39.6717,68.4398 39.3477,68.4288 C36.8987,68.3478 34.4497,68.2728 32.0017,68.1818 C28.8287,68.0628 25.6587,68.1258 22.4877,68.2318 C20.2617,68.3068 18.0357,68.3648 15.8087,68.4298 C15.5257,68.4388 15.2927,68.2038 15.2917,67.9168 C15.2897,67.3728 15.2907,66.8288 15.2917,66.2858 C15.2917,65.9778 15.4767,65.7748 15.7827,65.7568 C16.7787,65.6978 17.7757,65.6548 18.7707,65.5848 C19.7207,65.5168 20.6667,65.4238 21.5917,65.1668 C22.3667,64.9518 22.8447,64.4928 23.0687,63.7138 C23.3477,62.7438 23.4457,61.7518 23.4627,60.7568 C23.5227,57.2118 23.5757,53.6658 23.5877,50.1198 C23.6097,44.1138 23.6177,38.1088 23.5967,32.1028 C23.5797,27.2828 23.5207,22.4628 23.4607,17.6428 C23.4457,16.4338 23.4037,15.2238 23.1617,14.0268 C22.9837,13.1488 22.5037,12.5648 21.6377,12.3658 C20.8777,12.1918 20.1037,12.0488 19.3277,11.9758 C18.1577,11.8648 16.9807,11.8268 15.8067,11.7588 C15.4897,11.7398 15.2917,11.5348 15.2917,11.2178 C15.2907,10.6748 15.2907,10.1308 15.2917,9.5878 C15.2927,9.2958 15.5167,9.0738 15.8097,9.0848 C17.8217,9.1588 19.8337,9.2738 21.8467,9.3028 C25.2137,9.3498 28.5817,9.3918 31.9487,9.3468 C36.0457,9.2928 40.1417,9.1178 44.2397,9.0518 C47.3097,9.0028 50.3657,9.2008 53.3547,9.9848 C55.0277,10.4238 56.6437,11.0198 58.0067,12.1138 C60.1167,13.8108 61.5367,15.9878 62.2247,18.6088 C63.0907,21.9098 62.6677,25.0898 61.1957,28.1438 C59.4967,31.6668 56.7587,34.1378 53.2957,35.8478 C50.9327,37.0138 48.4107,37.6968 45.8387,38.2158 C45.7347,38.2358 45.6327,38.2608 45.4727,38.2958" id="Fill-4" fill="#000000"></path>
        </g>
    </g>
</svg>
