<?xml version="1.0" encoding="utf-8"?>
<!-- Generator: Adobe Illustrator 16.0.0, SVG Export Plug-In . SVG Version: 6.00 Build 0)  -->
<!DOCTYPE svg PUBLIC "-//W3C//DTD SVG 1.1//EN" "http://www.w3.org/Graphics/SVG/1.1/DTD/svg11.dtd">
<svg version="1.1" id="Layer_1" xmlns="http://www.w3.org/2000/svg" xmlns:xlink="http://www.w3.org/1999/xlink" x="0px" y="0px"
	 width="1700.787px" height="1700.787px" viewBox="0 0 1700.787 1700.787" enable-background="new 0 0 1700.787 1700.787"
	 xml:space="preserve">
<path fill-rule="evenodd" clip-rule="evenodd" fill="#333333" d="M1521.146,520.964c58.457,0,105.846,47.389,105.846,105.846
	s-47.389,105.846-105.846,105.846S1415.3,685.267,1415.3,626.81S1462.688,520.964,1521.146,520.964 M1521.146,1415.301
	c58.457,0,105.846,47.389,105.846,105.846s-47.389,105.846-105.846,105.846s-105.846-47.389-105.846-105.846
	S1462.688,1415.301,1521.146,1415.301z M175.994,70.295c58.457,0,105.846,47.389,105.846,105.846
	c0,58.457-47.389,105.846-105.846,105.846c-58.457,0-105.846-47.389-105.846-105.846C70.148,117.685,117.537,70.295,175.994,70.295z
	 M175.994,964.634c58.457,0,105.846,47.389,105.846,105.846s-47.389,105.846-105.846,105.846
	c-58.457,0-105.846-47.389-105.846-105.846S117.537,964.634,175.994,964.634z M1341.506,1521.146c0-10.479,0.906-20.748,2.63-30.735
	l-0.102-0.024l-0.052-0.012l-0.05-0.013l-0.052-0.013l-0.051-0.013l-0.152-0.037l-0.051-0.014l-0.014-0.003l-0.037-0.01l-0.05-0.013
	l-0.052-0.013l-0.051-0.014l-0.051-0.014l-0.05-0.013l-0.051-0.014l-0.051-0.014l-0.102-0.026l-0.051-0.014l-0.303-0.084
	l-0.051-0.015l-0.009-0.002l-0.042-0.013l-0.051-0.014l-0.303-0.089l-0.05-0.015l-0.007-0.002l-0.044-0.013l-0.05-0.016
	l-0.252-0.077l-0.05-0.016l-0.051-0.016l-0.004-0.002l-0.047-0.015l-0.351-0.113l-0.05-0.016l-0.003-0.001l-0.048-0.017l-0.05-0.017
	l-0.351-0.119l-1005.8-325.442c-31.094,53.565-89.069,89.591-155.466,89.591C80.429,1253.619,0,1173.191,0,1073.979
	s80.427-179.642,179.64-179.642c68.785,0,128.534,38.666,158.713,95.442l1002.554-324.39c1.48-0.514,2.985-0.916,4.501-1.213
	c-2.551-12.054-3.902-24.552-3.902-37.366c0-11.37,1.067-22.491,3.088-33.274c-1.24-0.275-2.472-0.622-3.687-1.043L336.375,267.459
	c-30.763,54.794-89.421,91.823-156.734,91.823C80.429,359.281,0,278.854,0,179.64C0,80.427,80.427,0,179.64,0
	c99.213,0,179.641,80.428,179.641,179.641c0,5.644-0.273,11.223-0.782,16.734l1004.943,325.164c3.293,1.057,6.336,2.526,9.092,4.33
	c32.327-47.5,86.824-78.699,148.612-78.699c99.213,0,179.641,80.428,179.641,179.641s-80.428,179.641-179.641,179.641
	c-60.539,0-114.08-29.946-146.625-75.832c-3.257,2.45-6.974,4.408-11.079,5.725L358.836,1061.399
	c0.288,4.156,0.445,8.349,0.445,12.579c0,6.519-0.356,12.954-1.033,19.294l1005.191,325.246c0.307,0.099,0.611,0.201,0.914,0.307
	l0.002,0.001c0.299,0.104,0.596,0.212,0.891,0.322l0.009,0.004l0.003,0.001l0.014,0.005c0.287,0.109,0.573,0.221,0.856,0.337
	l0.015,0.005l0.005,0.002l0.018,0.008c0.277,0.113,0.552,0.229,0.825,0.348l0.068,0.029c0.261,0.114,0.521,0.231,0.777,0.352
	l0.1,0.046c0.248,0.116,0.494,0.235,0.737,0.356l0.109,0.054c0.242,0.121,0.481,0.244,0.72,0.37l0.128,0.066
	c0.227,0.121,0.452,0.244,0.676,0.369l0.164,0.092c0.206,0.116,0.41,0.234,0.613,0.354l0.206,0.123
	c32.16-48.545,87.266-80.563,149.857-80.563c99.213,0,179.641,80.427,179.641,179.641s-80.428,179.641-179.641,179.641
	C1421.932,1700.787,1341.506,1620.359,1341.506,1521.146z"/>
<path fill-rule="evenodd" clip-rule="evenodd" fill="#333333" d="M614.874,446.72c6.318-19.678,27.291-30.457,46.968-24.139
	l370.362,119.836c19.679,6.318,30.455,27.291,24.14,46.969c-3.158,9.838-10.057,17.49-18.326,21.74
	c-8.271,4.252-18.803,5.557-28.348,2.246L639.31,493.536C619.336,487.371,608.557,466.398,614.874,446.72"/>
<path fill-rule="evenodd" clip-rule="evenodd" fill="#333333" d="M614.874,1090.763c6.318-19.678,27.291-30.457,46.968-24.139
	l370.361,119.836c19.678,6.318,30.455,27.291,24.139,46.969c-3.158,9.839-10.057,17.49-18.326,21.74
	c-8.271,4.251-18.803,5.556-28.348,2.246L639.309,1137.58C619.336,1131.412,608.557,1110.439,614.874,1090.763"/>
</svg>
