<?xml version="1.0" encoding="utf-8"?>
<!-- Generator: Adobe Illustrator 16.0.0, SVG Export Plug-In . SVG Version: 6.00 Build 0)  -->
<!DOCTYPE svg PUBLIC "-//W3C//DTD SVG 1.1//EN" "http://www.w3.org/Graphics/SVG/1.1/DTD/svg11.dtd">
<svg version="1.1" id="Layer_1" xmlns="http://www.w3.org/2000/svg" xmlns:xlink="http://www.w3.org/1999/xlink" x="0px" y="0px"
	 width="1700.787px" height="1700.787px" viewBox="0 0 1700.787 1700.787" enable-background="new 0 0 1700.787 1700.787"
	 xml:space="preserve">
<path fill-rule="evenodd" clip-rule="evenodd" fill="#333333" d="M1649.41,178.25c-0.457-6.853-0.369-26.599-3.308-45.887
	c-7.957-52.223-35.357-78.835-79.854-79.559c-46.149-0.738-80.594,29.892-85.805,82.765c-3.823,38.828-3.985,78.615,0.222,117.323
	c1.685,15.478,16.521,37.499,30.368,42.387c92.139,32.492,138.554-1.299,138.377-96.942
	C1649.41,195.883,1649.41,193.431,1649.41,178.25 M1437.654,324.85c0.104-77.085,0.357-154.171,0.907-231.255
	c0.088-11.857-1.082-21.211-4.564-28.134c-309.569-0.314-945.241-0.227-1254.812,0.044c-24.066,0.021-75.439,1.345-94.096,20.155
	c-17.976,18.125-19.443,66.405-19.52,89.689c-0.576,173.694-0.232,347.389-0.171,521.082l0.229,0.075v47.18
	c0,196.734-1.027,393.471,0.411,590.201c0.501,68.66,23.09,86.954,90.968,87.78c63.487,0.771,290.042,0.88,353.528,0.265
	c15.307-0.148,29.488,1.721,42.344,5.433c8.654-8.938,12.871-22.503,12.516-40.171c-1.181-58.426,2.288-114.313-34.384-168.984
	c-24.152-36.021-35.048-87.949-34.132-132.389c2.141-105.006,74.125-187.092,178.147-218.727
	c89.11-27.115,190.002,4.846,251.004,79.472c64.691,79.161,76.414,185.821,19.354,274.109
	c-32.021,49.55-37.558,99.364-35.344,153.803c1.116,27.578,3.104,43.627,11.387,53.114c23.548-6.026,49.268-5.572,73.701-5.663
	c91.196-0.34,345.392-3.335,436.545-1.259c9.846-19.542,1.167-64.404,1.22-95.491c0.094-55.738,0.148-111.479,0.18-167.216
	c-19.594-29.71-19.541-67.024-19.668-102.273c-0.575-160.059-0.225-320.116-0.191-480.174c0.012-56.323,0.808-112.651,0.094-168.973
	C1412.887,373.375,1421.552,345.576,1437.654,324.85z M859.921,1475.32c0-36.686,0.399-73.372-0.117-110.043
	c-0.443-30.365-13.096-41.233-46.328-38.369c-50.121,4.313-101.202,3.929-151.323-0.635c-33.025-2.998-46.962,8.491-47.36,38.222
	c-1.02,73.327-1.182,146.699-0.029,220.025c0.457,29.877,15.944,50.2,46.725,32.241c51.76-30.188,99.578-31.267,151.588-0.224
	c28.493,17,46.327,1.686,46.667-31.161C860.099,1548.691,859.804,1512.007,859.921,1475.32z M1480.505,1293.161
	c0,22.095-2.894,44.676,0.59,66.209c7.632,47.217,42.607,76.37,85.612,75.321c42.65-1.048,71.956-24.841,77.685-73.12
	c5.181-43.612,3.056-88.214,2.45-132.357c-0.339-25.491-14.113-38.073-41.058-42.092
	C1498.751,1171.157,1478.379,1187.313,1480.505,1293.161z M563.36,1098.522c0.454,96.317,77.878,173.225,173.885,174.665
	c95.191,1.428,179.413-82.261,177.609-177.656c-1.768-93.512-85.342-171.405-178.155-170.738
	C642.878,925.468,562.916,1004.251,563.36,1098.522z M0.169,743.658c0-189.513-0.473-379.026,0.162-568.525
	C0.76,44.164,45.713,0.359,179.13,0.24c339.508-0.295,1005.121-0.37,1344.631,0.059c125.398,0.163,173.055,47.821,175.639,173.711
	c0.812,39.359-0.237,78.748-0.089,118.135c0.147,39.979-19.443,58.219-59.349,57.141c-34.414-0.931-68.943,1.314-103.313-0.266
	c-40.895-1.875-58.609,16.452-58.108,56.697c0.724,56.594-0.073,113.203-0.089,169.812c-0.029,159.976-0.384,319.952,0.191,479.928
	c0.28,78.481,4.901,83.045,84.371,82.941c151.899-0.206,133.12-7.872,137.461,142.149c3.735,128.606-23.666,217.367-209.99,207.591
	c-110.399-5.79-384.401-1.359-495.111-0.945c-83.397,0.311-84.579,2.054-85.437,88.437c-0.295,29.493,0.976,59.267-2.643,88.404
	c-3.705,29.79-24.285,48.015-51.479,28.934c-79.707-55.885-155.043-55.737-236.226-1.314c-29.807,19.982-50.623,4.019-53.325-33.437
	c-2.834-39.183-1.728-78.717-1.033-118.076c0.649-37.572-17.45-53.301-54.063-52.946c-63.954,0.62-290.998,0.518-354.953-0.267
	c-104.759-1.27-154.66-48.559-155.412-152.563c-1.448-196.883-0.414-393.78-0.414-590.678
	C0.304,743.658,0.229,743.658,0.169,743.658z"/>
<path fill-rule="evenodd" clip-rule="evenodd" fill="#333333" d="M693.837,1097.908c0.119,25.262,20.397,44.392,45.365,44.766
	c21.349,0.32,45.607-23.063,45.199-44.675c-0.417-22.07-25.619-42.833-46.761-42.682
	C715.784,1055.476,693.732,1075.498,693.837,1097.908 M628.599,1096.339c0.291,61.655,49.782,108.345,110.719,109.257
	c52.105,0.783,111.31-56.288,110.313-109.035c-1.018-53.865-62.527-104.539-114.126-104.168
	C682.164,992.776,628.343,1041.645,628.599,1096.339z"/>
<path fill-rule="evenodd" clip-rule="evenodd" fill="#333333" d="M293.212,348.362h612.956c21.095,0,38.353,17.267,38.353,38.368
	v0.002c0,21.101-17.259,38.367-38.353,38.367H293.212c-21.093,0-38.352-17.265-38.352-38.367v-0.002
	C254.86,365.628,272.119,348.362,293.212,348.362"/>
<path fill-rule="evenodd" clip-rule="evenodd" fill="#333333" d="M390.63,597.957h722.549c21.095,0,38.353,17.266,38.353,38.367
	v0.002c0,21.101-17.259,38.367-38.353,38.367H390.63c-21.093,0-38.352-17.265-38.352-38.367v-0.002
	C352.278,615.222,369.536,597.957,390.63,597.957"/>
<path fill-rule="evenodd" clip-rule="evenodd" fill="#333333" d="M293.212,473.16h917.383c21.096,0,38.354,17.264,38.354,38.367
	v0.001c0,21.103-17.258,38.368-38.354,38.368l-917.383-0.001c-21.094,0-38.352-17.264-38.352-38.367v-0.001
	C254.86,490.425,272.119,473.16,293.212,473.16"/>
<path fill-rule="evenodd" clip-rule="evenodd" fill="#333333" d="M1084.725,348.362h125.871c21.096,0,38.354,17.268,38.354,38.368
	v0.002c0,21.1-17.26,38.367-38.354,38.367h-125.871c-21.093,0-38.354-17.265-38.354-38.367v-0.002
	C1046.371,365.628,1063.629,348.362,1084.725,348.362"/>
</svg>
