<?xml version="1.0" encoding="utf-8"?>
<!-- Generator: Adobe Illustrator 21.1.0, SVG Export Plug-In . SVG Version: 6.00 Build 0)  -->
<svg version="1.1" id="Layer_1" xmlns="http://www.w3.org/2000/svg" xmlns:xlink="http://www.w3.org/1999/xlink" x="0px" y="0px"
	 viewBox="0 0 1700.8 1700.8" style="enable-background:new 0 0 1700.8 1700.8;" xml:space="preserve">
<style type="text/css">
	.st0{fill:#333333;}
</style>
<path class="st0" d="M1620.4,506.5c-11.6-15.1-33.9-18.5-50.2-8c-16.3,10.8-19.9,31.4-8.6,46.5c44.2,57.5,67.4,125.5,67.4,196.3
	c0,70.8-23.3,138.7-67.4,196.3c-11.6,15.1-7.6,35.7,8.6,46.5c6.3,4,13.6,6.2,20.6,6.2c11.3,0,22.3-4.9,29.6-14.2
	c52.8-68.9,80.4-150.1,80.4-234.7S1672.9,575.4,1620.4,506.5"/>
<path class="st0" d="M1284.2,383.6V238.3c0-32.7-19.9-62.1-53.8-78.2c-33.9-16.1-74.1-15.5-107.3,1.7
	c-174.1,90.3-374.7,137.7-580,137.7H280.7c-64.1,0-116.9,42-122.2,95.4H101C45.2,395.2,0,433.5,0,480.9v539.9
	c0,47.4,45.2,85.8,101,85.8l57.5,0c4,40.3,34.9,73.9,77.4,88.3L388,1551.6c10,23.4,36.2,39.2,65.8,39.2l198,0
	c22.9,0,44.2-9.6,57.1-25.4c13-15.8,16.3-36.1,8.3-54.5l-131.5-308.4c190.3,6.2,375.4,53.3,537.5,137.1c17.3,9,36.2,13.5,55.5,13.5
	c17.9,0,35.5-3.9,51.8-11.6c33.6-16.1,53.8-45.1,53.8-78.2v-145.6C1375.7,1125.5,1678.2,634.8,1284.2,383.6 M158.1,1045.4H101
	c-15.9,0-28.9-11-28.9-24.5V480.9c0-13.5,13-24.5,28.9-24.5h57.1L158.1,1045.4z M648.8,1529.6H455.1L315.6,1202h193.3L648.8,1529.6z
	 M1211.8,1263.5c0.3,15-11.6,22.3-16.6,24.8c-5.3,2.5-18.9,7.3-34.6-0.6c-185.4-95.9-399-146.7-617.2-146.7H280.7
	c-27.9,0-50.5-19.2-50.5-42.9V403.9c0-23.7,22.6-42.9,50.5-42.9h217.2v661.8c0,16.9,15.9,30.5,35.9,30.5c19.9,0,35.9-13.8,35.9-30.5
	V360.5c209.3-4,412.9-54.5,590.6-146.4c15.6-7.9,29.2-3.1,34.5-0.6c5,2.5,16.9,9.9,16.9,24.8L1211.8,1263.5z M1284.2,1056.4v-611
	C1557.2,654.6,1330.7,1050.4,1284.2,1056.4"/>
</svg>
