<?xml version="1.0" encoding="utf-8"?>
<!-- Generator: Adobe Illustrator 16.0.0, SVG Export Plug-In . SVG Version: 6.00 Build 0)  -->
<!DOCTYPE svg PUBLIC "-//W3C//DTD SVG 1.1//EN" "http://www.w3.org/Graphics/SVG/1.1/DTD/svg11.dtd">
<svg version="1.1" id="Layer_1" xmlns="http://www.w3.org/2000/svg" xmlns:xlink="http://www.w3.org/1999/xlink" x="0px" y="0px"
	 width="1700.787px" height="1700.787px" viewBox="0 0 1700.787 1700.787" enable-background="new 0 0 1700.787 1700.787"
	 xml:space="preserve">
<path fill-rule="evenodd" clip-rule="evenodd" fill="#333333" d="M1668.252,401.772l-0.357-0.963
	c-16.629-44.614-36.494-85.59-59.563-122.95c-60.499-95.083-146.563-170.651-246.688-218.833
	c-40.918-18.949-85.187-34.075-132.798-45.363c-4.411-1.045-8.819-2.028-13.229-2.955c-80.521-15.517-165.668-14.646-251.027,5.728
	C694.055,81.002,509.898,316.231,503.88,583.175c22.357-4.014,45.193-6.63,68.418-7.737
	c9.356-232.704,171.38-436.461,407.976-492.927c291.762-69.632,580.894,117.27,641.625,406.464
	c58.188,277.086-118.385,568.608-415.832,627.008c-25.75,5.325-51.496,8.604-77.071,9.997c-0.904,22.816-3.296,45.265-7.044,67.266
	c10.922-0.285,21.849-0.684,32.772-1.042c21.494-1.993,43.066-5.16,64.646-9.623c120.615-23.684,223.604-81.34,303.019-160
	c0.108-0.006,0.209-0.006,0.317-0.01c13.518-13.405,25.927-19.449,45.631-15.891c32.617,5.896,65.874,8.266,102.729,12.572
	c-15.139-35.98-28.08-68.712-42.742-100.65c-6.246-13.607-6.465-24.193,0.955-37.798c42.623-78.123,67.646-161.683,71.079-250.809
	c0.229-5.927,0.354-11.857,0.403-17.791v-0.035v0.035v-0.001v-0.041v0.005c0.158-18.801-0.459-37.633-1.094-56.465
	c-1.816-26.877-5.453-53.812-11.084-80.625C1683.302,449.932,1676.479,425.472,1668.252,401.772"/>
<path fill-rule="evenodd" clip-rule="evenodd" fill="#333333" d="M596.593,1632.841c289.681,3.271,532.001-234.104,532.809-526.011
	c0.792-287.31-223.199-519.605-509.488-531.53C320.2,562.815,72.288,801.605,68.169,1097.066
	C64.222,1380.156,293.454,1632.468,596.593,1632.841 M5.943,1020.352l0.167-1.014c7.76-46.97,19.396-90.99,34.869-132.072
	c41.132-104.903,111.103-195.547,200.127-262.004c36.524-26.431,77.068-49.751,121.632-69.945c4.128-1.871,8.267-3.68,12.417-5.433
	c76.048-30.646,159.786-46.09,247.471-42.438c323.042,13.457,575.79,275.575,574.896,599.768
	c-0.668,241.855-148.269,450.534-356.063,542.899l-0.192,0.084c-2.313,1.024-4.651,2.002-6.979,3
	c-29.153,12.316-59.54,22.287-91.234,29.758c-26.825,6.322-54.167,10.467-81.445,14.867c-21.479,2.156-43.261,3.18-65.292,2.93
	c-122.924-0.149-235.064-37.022-328.101-99.021c-0.109,0.016-0.205,0.032-0.313,0.051c-15.84-10.568-29.178-14.123-47.833-6.856
	c-30.881,12.028-63.066,20.723-98.413,32.006c7.955-38.211,14.377-72.813,22.639-106.967c3.52-14.552,1.704-24.984-8.188-36.914
	c-56.823-68.515-97.413-145.736-117.882-232.554c-1.362-5.772-2.625-11.567-3.813-17.383v-0.002l-0.007-0.033l0.007,0.035v-0.002
	l-0.008-0.038l0.001,0.006c-3.763-18.423-6.77-37.023-9.759-55.629c-3.375-26.729-4.974-53.855-4.592-81.252
	C0.413,1070.5,2.417,1045.188,5.943,1020.352z"/>
</svg>
