<?xml version="1.0" encoding="utf-8"?>
<!-- Generator: Adobe Illustrator 21.1.0, SVG Export Plug-In . SVG Version: 6.00 Build 0)  -->
<svg version="1.1" id="Layer_1" xmlns="http://www.w3.org/2000/svg" xmlns:xlink="http://www.w3.org/1999/xlink" x="0px" y="0px"
     viewBox="0 0 554 556" style="enable-background:new 0 0 554 556;" xml:space="preserve">
<style type="text/css">
    .st0{fill:#7E7864;}
</style>
<g>
    <path class="st0" d="M199.051,415.69c-16.638,9.592-32.342,18.641-48.042,27.698c-13.267,7.654-26.519,15.333-39.793,22.973
        c-9.894,5.695-17.323,3.761-23.044-6.133c-20.832-36.031-41.634-72.08-62.401-108.148c-5.197-9.026-3.13-16.747,5.884-21.97
        c27.657-16.026,55.354-31.984,83.03-47.975c1.536-0.887,3.032-1.842,5.234-3.184c-2.522-1.511-4.441-2.698-6.395-3.825
        c-26.675-15.396-53.365-30.765-80.027-46.183c-11.619-6.719-13.332-13.37-6.558-25.116c20.129-34.9,40.267-69.795,60.412-104.686
        c6.843-11.853,13.462-13.553,25.496-6.604c26.96,15.568,53.92,31.136,80.886,46.693c1.54,0.888,3.133,1.684,5.315,2.851
        c0-2.429,0-4.201,0-5.973c0.001-31.665-0.009-63.329,0.007-94.994c0.006-11.677,5.448-17.107,17.118-17.11
        c41.331-0.008,82.662-0.01,123.993,0.002c11.26,0.003,16.76,5.561,16.767,16.959c0.017,31.665,0.006,63.329,0.006,94.994
        c0,1.803,0,3.606,0,6.122c2.095-1.122,3.67-1.91,5.194-2.788c27.404-15.799,54.8-31.611,82.202-47.413
        c10.5-6.055,17.688-4.142,23.711,6.29c20.477,35.468,40.958,70.934,61.428,106.406c6.201,10.745,4.297,17.843-6.438,24.047
        c-27.244,15.743-54.494,31.476-81.737,47.22c-1.536,0.888-3.033,1.843-5.073,3.087c1.829,1.197,3.122,2.134,4.497,2.928
        c27.39,15.82,54.793,31.618,82.186,47.435c11.007,6.355,12.817,13.252,6.378,24.411c-20.387,35.328-40.782,70.652-61.201,105.962
        c-6.205,10.73-13.21,12.54-24.082,6.272c-27.259-15.715-54.504-31.456-81.761-47.176c-1.534-0.885-3.122-1.678-5.303-2.844
        c0,2.594,0,4.536,0,6.477c0,31.331,0.005,62.663-0.003,93.994c-0.003,12.316-5.308,17.607-17.649,17.608
        c-40.831,0.005-81.662,0.005-122.493-0.001c-12.615-0.002-17.743-5.207-17.745-17.997c-0.004-31.332,0-62.663,0-93.995
        C199.052,420.204,199.051,418.405,199.051,415.69z M448.829,122.654c-2.664,1.514-4.691,2.65-6.704,3.812
        c-29.987,17.308-59.923,34.703-90.023,51.813c-3.426,1.948-7.844,3.418-11.661,3.146c-7.816-0.557-12.418-6.869-12.427-15.431
        c-0.035-35.825-0.023-71.651-0.029-107.476c0-1.764,0-3.528,0-5.186c-33.701,0-66.745,0-99.999,0c0,3.068,0,5.725,0,8.383
        c0,34.326,0.012,68.651-0.007,102.977c-0.008,14.876-11.084,21.277-23.94,13.857c-30.563-17.639-61.118-35.293-91.682-52.931
        c-1.663-0.959-3.377-1.829-5.282-2.856c-16.751,29.034-33.259,57.646-49.896,86.481c11.724,6.78,22.803,13.196,33.89,19.599
        c21.333,12.321,42.684,24.61,63.996,36.965c6.982,4.048,9.793,10.284,7.877,17.14c-1.302,4.661-4.679,7.465-8.712,9.785
        c-30.3,17.43-60.571,34.911-90.846,52.383c-1.966,1.134-3.894,2.334-6.185,3.71c16.801,29.091,33.332,57.712,49.936,86.461
        c2.038-1.147,3.633-2.025,5.209-2.934c30.563-17.64,61.123-35.285,91.686-52.926c12.884-7.437,23.928-1.095,23.945,13.826
        c0.04,35.159,0.015,70.318,0.017,105.476c0,1.952,0,3.905,0,6.029c33.544,0,66.588,0,99.993,0c0-1.945,0-3.579,0-5.214
        c0.006-35.325,0.491-70.661-0.23-105.971c-0.267-13.098,11.707-21.936,24.447-14.204c26.318,15.974,53.226,30.975,79.896,46.369
        c5.442,3.141,10.902,6.25,16.729,9.59c16.712-28.946,33.236-57.567,49.947-86.51c-2.441-1.459-4.397-2.663-6.386-3.811
        c-30.13-17.392-60.253-34.795-90.41-52.139c-4.179-2.403-7.729-5.22-8.981-10.14c-1.781-6.997,0.95-12.896,8.091-17.027
        c28.094-16.256,56.217-32.462,84.324-48.696c4.301-2.484,8.574-5.018,13.364-7.825C482.089,180.27,465.566,151.647,448.829,122.654
        z"/>
</g>
</svg>
