<?xml version="1.0" encoding="utf-8"?>
<!-- Generator: Adobe Illustrator 21.1.0, SVG Export Plug-In . SVG Version: 6.00 Build 0)  -->
<svg version="1.1" id="Layer_1" xmlns="http://www.w3.org/2000/svg" xmlns:xlink="http://www.w3.org/1999/xlink" x="0px" y="0px"
	 viewBox="0 0 512 512" style="enable-background:new 0 0 512 512;" xml:space="preserve">
<style type="text/css">
	.st0{fill:#7E7763;}
</style>
<g>
	<g>
		<path class="st0" d="M487.8,137.6c-3.5-4.9-10.2-6-15.1-2.6c-4.9,3.5-6,10.2-2.6,15.1c13.3,18.7,20.3,40.8,20.3,63.8
			s-7,45.1-20.3,63.8c-3.5,4.9-2.3,11.6,2.6,15.1c1.9,1.3,4.1,2,6.2,2c3.4,0,6.7-1.6,8.9-4.6c15.9-22.4,24.2-48.8,24.2-76.3
			S503.6,160,487.8,137.6z"/>
	</g>
</g>
<g>
	<g>
		<path class="st0" d="M386.6,144.5V93c0-11.6-6-22-16.2-27.7s-22.3-5.5-32.3,0.6c-52.4,32-112.8,48.8-174.6,48.8l0,0l0,0h-79
			c-19.3,0-35.2,14.9-36.8,33.8H30.4C13.6,148.6,0,162.2,0,179v69.9c0,16.8,13.6,30.4,30.4,30.4h17.3c1.2,14.3,10.5,26.2,23.3,31.3
			L116.8,437c3,8.3,10.9,13.9,19.8,13.9h59.6c6.9,0,13.3-3.4,17.2-9s4.9-12.8,2.5-19.3l-39.6-109.3c57.3,2.2,113,18.9,161.8,48.6
			c5.2,3.2,10.9,4.8,16.7,4.8c5.4,0,10.7-1.4,15.6-4.1c10.1-5.7,16.2-16,16.2-27.7v-51.6c35.1-3.6,62.6-33.3,62.6-69.4
			S421.7,148.2,386.6,144.5z M47.6,257.6H30.4c-4.8,0-8.7-3.9-8.7-8.7V179c0-4.8,3.9-8.7,8.7-8.7h17.2
			C47.6,170.3,47.6,257.6,47.6,257.6z M195.3,429.2H137L95,313.1h58.2L195.3,429.2z M359.8,343.7c-1.6,0.9-5.7,2.6-10.4-0.2
			c-55.8-34-120.1-52-185.8-52H84.5c-8.4,0-15.2-6.8-15.2-15.2V151.7c0-8.4,6.8-15.2,15.2-15.2h65.4v113.1c0,6,4.8,10.8,10.8,10.8
			s10.8-4.9,10.8-10.8V136.3c63-1.4,124.3-19.3,177.8-51.9c4.7-2.8,8.8-1.1,10.4-0.2c1.5,0.9,5.1,3.5,5.1,8.8v241.9l0,0
			C364.9,340.2,361.3,342.8,359.8,343.7z M386.6,261.5v-95.1c23.1,3.5,40.9,23.5,40.9,47.5S409.7,258,386.6,261.5z"/>
	</g>
</g>
</svg>
