<?xml version="1.0" encoding="utf-8"?>
<!-- Generator: Adobe Illustrator 21.1.0, SVG Export Plug-In . SVG Version: 6.00 Build 0)  -->
<svg version="1.1" id="Layer_1" xmlns="http://www.w3.org/2000/svg" xmlns:xlink="http://www.w3.org/1999/xlink" x="0px" y="0px"
	 viewBox="0 0 300.1 300.1" style="enable-background:new 0 0 300.1 300.1;" xml:space="preserve">
<style type="text/css">
	.st0{fill:#7E7763;}
</style>
<g>
	<g>
		<path class="st0" d="M293.3,184.1h-82.9L197.7,108c-0.5-3.3-3.4-5.7-6.7-5.7h-0.1c-3.4,0-6.2,2.5-6.7,5.8l-12.5,87.6L156.8,47.1
			c-0.4-3.4-3.2-6.1-6.6-6.1h-0.1c-3.4,0-6.3,2.5-6.8,5.9l-19.6,137.4h-9.4L102,141.4c-0.9-3-3.8-5.1-6.8-4.9
			c-3.1,0.1-5.8,2.3-6.4,5.4l-8.9,42.3h-73c-3.8,0-6.8,3-6.8,6.8s3,6.8,6.8,6.8h78.6c3.2,0,6-2.3,6.7-5.4l4.4-20.9l6.1,21.3
			c0.8,2.9,3.5,5,6.6,5h20.5c3.4,0,6.3-2.5,6.8-5.8l12.5-87.6L163.7,253c0.4,3.4,3.2,6.1,6.6,6.1h0.1c3.4,0,6.3-2.5,6.8-5.8
			l14.2-99.6l6.4,38.4c0.5,3.3,3.4,5.7,6.7,5.7h88.7c3.8,0,6.8-3,6.8-6.8C300.1,187.2,297,184.1,293.3,184.1z"/>
	</g>
</g>
</svg>
