<?xml version="1.0" encoding="utf-8"?>
<!-- Generator: Adobe Illustrator 21.1.0, SVG Export Plug-In . SVG Version: 6.00 Build 0)  -->
<svg version="1.1" id="Layer_1" xmlns="http://www.w3.org/2000/svg" xmlns:xlink="http://www.w3.org/1999/xlink" x="0px" y="0px"
	 viewBox="0 0 512 512" style="enable-background:new 0 0 512 512;" xml:space="preserve">
<style type="text/css">
	.st0{fill:#7E7763;}
</style>
<g>
	<g>
		<path class="st0" d="M434.5,151.3h-2.1V10.2c0-5.6-4.6-10.2-10.2-10.2H89.7c-5.6,0-10.2,4.6-10.2,10.2v242h-2.1
			c-33.2,0-60.2,27-60.2,60.2s27,60.2,60.2,60.2h2.1v129.2c0,5.6,4.6,10.2,10.2,10.2h332.6c5.6,0,10.2-4.6,10.2-10.2V271.6h2.1
			c33.2,0,60.2-27,60.2-60.2S467.7,151.3,434.5,151.3z M79.5,352.2h-2.1c-21.9,0-39.8-17.8-39.8-39.8s17.8-39.8,39.8-39.8h2.1V352.2
			z M412.1,151.3h-29.2v-18.5c0-8.3-4.3-15.8-11.5-19.9c-7.2-4.2-15.8-4.2-23,0l-49.7,28.7c-7.2,4.2-11.5,11.6-11.5,19.9
			s4.3,15.8,11.5,19.9l49.7,28.7l0,0c3.6,2.1,7.5,3.1,11.5,3.1c3.9,0,7.9-1,11.5-3.1c7.2-4.2,11.5-11.6,11.5-19.9v-18.5h29.2v319.9
			H99.9v-119H224v18.5c0,8.3,4.3,15.8,11.5,19.9c3.6,2.1,7.5,3.1,11.5,3.1s7.9-1,11.5-3.1l49.7-28.7c7.2-4.2,11.5-11.6,11.5-19.9
			s-4.3-15.8-11.5-19.9l-49.7-28.7l0,0c-7.2-4.2-15.8-4.2-23,0S224,325.4,224,333.7v18.5H99.9V20.4h312.2V151.3L412.1,151.3z
			 M362.4,132.8v57.4c0,1.2-0.7,1.9-1.3,2.3s-1.5,0.6-2.6,0l-49.7-28.7c-1.1-0.6-1.3-1.6-1.3-2.3s0.2-1.6,1.3-2.3l49.7-28.7
			c1.1-0.6,2-0.3,2.6,0C361.7,130.9,362.4,131.5,362.4,132.8z M244.4,391.1v-57.4c0-1.2,0.7-1.9,1.3-2.3c0.3-0.2,0.8-0.4,1.3-0.4
			c0.4,0,0.8,0.1,1.3,0.4l49.7,28.7c1.1,0.6,1.3,1.6,1.3,2.3c0,0.7-0.2,1.6-1.3,2.3l-49.7,28.7c-1.1,0.6-2,0.3-2.6,0
			C245.1,393,244.4,392.3,244.4,391.1z M434.5,251.2h-2.1v-79.6h2.1c21.9,0,39.8,17.8,39.8,39.8S456.5,251.2,434.5,251.2z"/>
	</g>
</g>
<g>
	<g>
		<path class="st0" d="M364.1,62.2H357c-5.6,0-10.2,4.6-10.2,10.2s4.6,10.2,10.2,10.2h7.1c5.6,0,10.2-4.6,10.2-10.2
			C374.3,66.8,369.7,62.2,364.1,62.2z"/>
	</g>
</g>
<g>
	<g>
		<path class="st0" d="M317.2,62.2H147.9c-5.6,0-10.2,4.6-10.2,10.2s4.6,10.2,10.2,10.2h169.3c5.6,0,10.2-4.6,10.2-10.2
			C327.4,66.8,322.8,62.2,317.2,62.2z"/>
	</g>
</g>
<g>
	<g>
		<path class="st0" d="M285.6,239.7H147.9c-5.6,0-10.2,4.6-10.2,10.2s4.6,10.2,10.2,10.2h137.7c5.6,0,10.2-4.6,10.2-10.2
			S291.2,239.7,285.6,239.7z"/>
	</g>
</g>
<g>
	<g>
		<path class="st0" d="M239.7,123.4h-91.8c-5.6,0-10.2,4.6-10.2,10.2s4.6,10.2,10.2,10.2h91.8c5.6,0,10.2-4.6,10.2-10.2
			S245.3,123.4,239.7,123.4z"/>
	</g>
</g>
<g>
	<g>
		<path class="st0" d="M239.7,178.5h-91.8c-5.6,0-10.2,4.6-10.2,10.2c0,5.6,4.6,10.2,10.2,10.2h91.8c5.6,0,10.2-4.6,10.2-10.2
			S245.3,178.5,239.7,178.5z"/>
	</g>
</g>
</svg>
