<?xml version="1.0" encoding="utf-8"?>
<!-- Generator: Adobe Illustrator 21.1.0, SVG Export Plug-In . SVG Version: 6.00 Build 0)  -->
<svg version="1.1" id="Capa_1" xmlns="http://www.w3.org/2000/svg" xmlns:xlink="http://www.w3.org/1999/xlink" x="0px" y="0px"
	 viewBox="0 0 59.5 59.5" style="enable-background:new 0 0 59.5 59.5;" xml:space="preserve">
<style type="text/css">
	.st0{fill:#7E7763;}
</style>
<g>
	<path class="st0" d="M55.5,44.1c-0.4-4.1-3.9-7.3-8-7.3c-2.6,0-5,1.3-6.5,3.4c-0.3-0.1-0.6-0.1-0.9-0.1c-2.3,0-4.4,1.6-5.1,3.8
		c-1.8,1.1-3,3.2-3,5.5c0,3.5,2.8,6.4,6.2,6.4H49c0.1,0,0.1,0,0.2,0c0.1,0,0.1,0,0.2,0h4.3c3.2,0,5.8-2.7,5.8-6
		C59.5,47.2,57.9,44.9,55.5,44.1z M53.7,53.8h-4.4h-0.2H38.2c-2.3,0-4.2-2-4.2-4.4c0-1.7,0.9-3.2,2.4-3.9l0.4-0.2l0.1-0.5
		c0.3-1.6,1.7-2.7,3.2-2.7c0.3,0,0.7,0.1,1,0.2l0.8,0.3l0.4-0.7c1.1-1.9,3-3,5.2-3c3.3,0,6,2.7,6,6.1v0.8l0.8,0.2
		c1.8,0.4,3.1,2,3.1,3.9C57.5,52,55.8,53.8,53.7,53.8z"/>
	<polygon class="st0" points="18.1,43.8 18.1,20.8 16.1,20.8 11,23.8 11,25.8 16.1,22.8 16.1,43.8 	"/>
	<path class="st0" d="M34.3,40.8c1.2-1.7,1.8-3.4,1.8-5.3v-7.3c0-2-0.7-3.8-2.1-5.2c-1.4-1.4-3.1-2.1-5.2-2.1S25,21.6,23.6,23
		c-1.4,1.4-2.1,3.1-2.1,5.2s0.7,3.8,2.1,5.2s3.2,2.1,5.3,2.1s3.9-0.8,5.3-2.3v2.1c0,2.2-0.6,3.8-1.9,4.9c-1.3,1.1-2.8,1.7-4.5,1.7
		h-0.7v1.9h0.6c1.5,0,2.9-0.3,4-0.8S33.7,41.6,34.3,40.8z M32.6,31.9c-1,1-2.3,1.6-3.8,1.6S26,33,24.9,31.9c-1.1-1-1.6-2.3-1.6-3.8
		s0.5-2.8,1.6-3.9s2.3-1.6,3.8-1.6s2.8,0.5,3.8,1.5c1.1,1,1.6,2.3,1.6,3.9S33.6,30.9,32.6,31.9z"/>
	<path class="st0" d="M28,48.8H2v-33h15h2h14h2h14v18c0,0.6,0.4,1,1,1s1-0.4,1-1v-18v-1v-11H35h-2H19h-2H0v11v1v34c0,0.6,0.4,1,1,1
		h27c0.6,0,1-0.4,1-1S28.6,48.8,28,48.8z M35,5.8h14v8H35V5.8z M19,5.8h14v8H19V5.8z M2,5.8h15v8H2V5.8z"/>
</g>
</svg>
