<?xml version="1.0" encoding="utf-8"?>
<!-- Generator: Adobe Illustrator 21.1.0, SVG Export Plug-In . SVG Version: 6.00 Build 0)  -->
<svg version="1.1" id="Layer_1" xmlns="http://www.w3.org/2000/svg" xmlns:xlink="http://www.w3.org/1999/xlink" x="0px" y="0px"
	 viewBox="0 0 485.6 485.6" style="enable-background:new 0 0 485.6 485.6;" xml:space="preserve">
<style type="text/css">
	.st0{fill:#7E7763;}
</style>
<g>
	<g>
		<path class="st0" d="M163.4,67.1c-53.2,0-96.5,43.3-96.5,96.5c0,5,4.1,9.1,9.1,9.1s9.1-4.1,9.1-9.1c0-43.2,35.1-78.3,78.3-78.3
			c5,0,9.1-4.1,9.1-9.1C172.5,71.1,168.4,67.1,163.4,67.1z"/>
		<path class="st0" d="M335,277.5c-3.5-3.5-9.3-3.5-12.8,0l-15.9,15.9l-21.1-21.1c25.9-28.9,41.7-67.1,41.7-108.9
			C326.9,73.3,253.6,0,163.5,0S0,73.3,0,163.4s73.3,163.4,163.4,163.4c41.8,0,79.9-15.8,108.9-41.7l21.1,21.1l-15.9,15.9
			c-1.7,1.7-2.7,4-2.7,6.4s1,4.7,2.7,6.4l141.9,141.9c5.6,5.6,13,8.7,20.9,8.7s15.3-3.1,20.9-8.7l15.7-15.7c5.6-5.6,8.7-13,8.7-20.9
			s-3.1-15.3-8.7-20.9L335,277.5z M18.2,163.4c0-80.1,65.2-145.3,145.3-145.3s145.3,65.2,145.3,145.3s-65.2,145.3-145.3,145.3
			S18.2,243.6,18.2,163.4z M464.1,432.3c2.2,2.2,3.4,5,3.4,8.1s-1.3,6-3.4,8.1l-15.7,15.7c-2.2,2.2-5,3.4-8.1,3.4s-5.9-1.2-8.1-3.4
			L296.7,328.7l31.9-31.9"/>
	</g>
</g>
</svg>
