<?xml version="1.0" encoding="utf-8"?>
<!-- Generator: Adobe Illustrator 19.0.0, SVG Export Plug-In . SVG Version: 6.00 Build 0)  -->
<svg version="1.1" id="Capa_1" xmlns="http://www.w3.org/2000/svg" xmlns:xlink="http://www.w3.org/1999/xlink" x="0px" y="0px"
   viewBox="-594 594.8 512 512" style="enable-background:new -594 594.8 512 512;" xml:space="preserve">
<style type="text/css">
  .st0{fill:#FCC200;}
</style>
<g>
  <path class="st0" d="M-211.5,729.5c-3.1-3.1-6.6-4.6-10.5-4.6c-0.8,0-2,0.2-3.7,0.6l-121.8,30.2l52.6-142.5c1-2.1,1.5-3.9,1.5-5.5
    c0-3.5-1.3-6.5-4-9.1s-5.9-3.8-9.8-3.8h-100.9c-3.3,0-6.2,0.9-8.6,2.8c-2.5,1.8-4.1,4.2-4.9,7.1l-61.8,253.8c-1,4.9,0.3,8.9,4,12
    c2.7,2.3,5.8,3.4,9.5,3.4c1.6,0,2.9-0.1,3.7-0.3l124.9-31.1l-60.6,248.6c-0.8,3.3-0.4,6.4,1.4,9.2c1.7,2.9,4.4,4.8,7.8,5.8
    c2.1,0.4,3.5,0.6,4.3,0.6c5.9,0,10.3-2.6,12.9-7.7l166.2-356C-207,738.1-207.8,733.6-211.5,729.5z"/>
</g>
</svg>
