<svg xmlns="http://www.w3.org/2000/svg" x="0px" y="0px" viewBox="-264 176 150 150">
    <path fill="#cbcbcb" d="M-189,227.347c-16.475,0-29.878,13.403-29.878,29.878s13.403,29.878,29.878,29.878s29.878-13.403,29.878-29.878S-172.525,227.347-189,227.347z"></path>
    <path fill="#cbcbcb" d="M-126.255,214.898h-21.223L-157.437,190h-63.126l-9.959,24.898h-3.294v-12.449h-14.939v12.449h-2.99c-6.59,0-11.949,5.358-11.949,11.949v73.12c0,6.635,5.398,12.033,12.033,12.033h125.321c6.635,0,12.033-5.398,12.033-12.033v-73.12C-114.306,220.256-119.664,214.898-126.255,214.898z M-238.796,214.898h-4.98v-7.469h4.98V214.898z M-189,302.041c-24.711,0-44.816-20.105-44.816-44.816s20.105-44.816,44.816-44.816s44.816,20.105,44.816,44.816S-164.289,302.041-189,302.041zM-134.224,244.776c-5.492,0-9.959-4.467-9.959-9.959c0-5.492,4.467-9.959,9.959-9.959s9.959,4.467,9.959,9.959C-124.265,240.309-128.732,244.776-134.224,244.776z">and powerful features.</path>
</svg>
