<?xml version="1.0" encoding="utf-8"?>
<!-- Generator: Adobe Illustrator 21.1.0, SVG Export Plug-In . SVG Version: 6.00 Build 0)  -->
<svg version="1.1" id="Layer_1" xmlns="http://www.w3.org/2000/svg" xmlns:xlink="http://www.w3.org/1999/xlink" x="0px" y="0px"
     viewBox="0 0 496 496" style="enable-background:new 0 0 496 496;" xml:space="preserve">
<style type="text/css">
    .st0{fill:#7E7763;}
</style>
<g>
    <g>
        <path class="st0" d="M472,369.136V126.864c13.768-3.576,24-15.992,24-30.864c0-17.648-14.352-32-32-32
            c-11.616,0-21.704,6.28-27.312,15.56l-156.8-46.456C279.904,32.728,280,32.376,280,32c0-17.648-14.352-32-32-32s-32,14.352-32,32
            c0,0.376,0.096,0.728,0.112,1.104L59.312,79.56C53.704,70.28,43.616,64,32,64C14.352,64,0,78.352,0,96
            c0,14.872,10.232,27.288,24,30.864v242.272C10.232,372.712,0,385.128,0,400c0,17.648,14.352,32,32,32
            c11.616,0,21.704-6.28,27.312-15.56l156.8,46.456C216.096,463.272,216,463.624,216,464c0,17.648,14.352,32,32,32s32-14.352,32-32
            c0-0.376-0.096-0.728-0.112-1.104l156.8-46.456C442.296,425.72,452.384,432,464,432c17.648,0,32-14.352,32-32
            C496,385.128,485.768,372.712,472,369.136z M464,80c8.824,0,16,7.176,16,16s-7.176,16-16,16s-16-7.176-16-16S455.176,80,464,80z
             M248,16c8.824,0,16,7.176,16,16s-7.176,16-16,16s-16-7.176-16-16S239.176,16,248,16z M63.888,94.896l156.8-46.456
            C226.296,57.72,236.384,64,248,64s21.704-6.28,27.312-15.56l156.8,46.456C432.096,95.272,432,95.624,432,96
            s0.096,0.728,0.112,1.104l-156.8,46.456C269.704,134.28,259.616,128,248,128s-21.704,6.28-27.312,15.56l-156.8-46.456
            C63.904,96.728,64,96.376,64,96S63.904,95.272,63.888,94.896z M248,176c-8.824,0-16-7.176-16-16s7.176-16,16-16s16,7.176,16,16
            S256.824,176,248,176z M256,322.224c4.76,2.776,8,7.88,8,13.776s-3.24,11-8,13.776V322.224z M16,96c0-8.824,7.176-16,16-16
            s16,7.176,16,16s-7.176,16-16,16S16,104.824,16,96z M32,416c-8.824,0-16-7.176-16-16s7.176-16,16-16s16,7.176,16,16
            S40.824,416,32,416z M40,369.136V126.864c8.176-2.128,15.048-7.36,19.312-14.424l156.8,46.456
            C216.096,159.272,216,159.624,216,160c0,14.872,10.232,27.288,24,30.864v114.272c-13.768,3.576-24,15.992-24,30.864
            c0,0.376,0.096,0.728,0.112,1.104l-156.8,46.456C55.048,376.496,48.176,371.264,40,369.136z M240,322.224v27.544
            c-4.76-2.776-8-7.88-8-13.776S235.24,325,240,322.224z M220.688,447.56l-156.8-46.456C63.904,400.728,64,400.376,64,400
            s-0.096-0.728-0.112-1.104l156.8-46.456c4.264,7.064,11.128,12.296,19.312,14.424v66.272
            C231.824,435.264,224.952,440.496,220.688,447.56z M248,480c-8.824,0-16-7.176-16-16s7.176-16,16-16s16,7.176,16,16
            S256.824,480,248,480z M432.112,401.104l-156.8,46.456c-4.264-7.064-11.128-12.296-19.312-14.424v-66.272
            c8.176-2.128,15.048-7.36,19.312-14.424l156.8,46.456C432.096,399.272,432,399.624,432,400S432.096,400.728,432.112,401.104z
             M436.688,383.56l-156.8-46.456c0.016-0.376,0.112-0.728,0.112-1.104c0-14.872-10.232-27.288-24-30.864V190.864
            c13.768-3.576,24-15.992,24-30.864c0-0.376-0.096-0.728-0.112-1.104l156.8-46.456c4.264,7.064,11.128,12.296,19.312,14.424
            v242.272C447.824,371.264,440.952,376.496,436.688,383.56z M464,416c-8.824,0-16-7.176-16-16s7.176-16,16-16s16,7.176,16,16
            S472.824,416,464,416z"/>
    </g>
</g>
</svg>
