<?xml version="1.0" encoding="utf-8"?>
<!-- Generator: Adobe Illustrator 21.1.0, SVG Export Plug-In . SVG Version: 6.00 Build 0)  -->
<svg version="1.1" id="Capa_1" xmlns="http://www.w3.org/2000/svg" xmlns:xlink="http://www.w3.org/1999/xlink" x="0px" y="0px"
     viewBox="0 0 31.988 31.988" style="enable-background:new 0 0 31.988 31.988;" xml:space="preserve">
<style type="text/css">
    .st0{fill:#7E7763;}
</style>
<g>
    <path class="st0" d="M28.938,15.916c-1.157,0-2.166,0.646-2.683,1.598l-3.696-0.346c-0.227-4.047-3.578-7.259-7.68-7.259
        c-1.382,0-2.675,0.366-3.796,1.004L8.329,7.397c0.504-0.692,0.804-1.546,0.804-2.469c0-2.314-1.878-4.19-4.191-4.19
        s-4.191,1.876-4.191,4.19c0,2.315,1.878,4.193,4.191,4.193c0.562,0,1.1-0.112,1.591-0.314l2.755,3.514
        c-1.301,1.379-2.102,3.237-2.102,5.282c0,1.568,0.472,3.025,1.276,4.242L3.3,26.496c-0.264-0.098-0.55-0.15-0.849-0.15
        C1.1,26.346,0,27.443,0,28.799c0,1.352,1.1,2.451,2.451,2.451c1.355,0,2.452-1.1,2.452-2.451c0-0.209-0.025-0.412-0.075-0.604
        l5.162-4.652c1.33,1.096,3.03,1.754,4.889,1.754c3.612,0,6.645-2.494,7.471-5.854l3.647,0.34c0.358,1.288,1.537,2.232,2.94,2.232
        c1.685,0,3.051-1.365,3.051-3.051C31.988,17.283,30.622,15.916,28.938,15.916z M11.03,20.918c-0.171,0.092-0.354,0.133-0.534,0.133
        c-0.292,0-0.578-0.115-0.792-0.32c-0.084-0.082-0.158-0.176-0.216-0.287c-2.08-3.928,0.079-6.321,0.171-6.422
        c0.188-0.203,0.43-0.32,0.683-0.354c0.329-0.045,0.671,0.053,0.931,0.293c0.354,0.331,0.452,0.832,0.283,1.256
        c-0.047,0.122-0.117,0.239-0.21,0.344c-0.066,0.078-1.065,1.333,0.066,3.631c0.029,0.062,0.06,0.121,0.093,0.186
        C11.8,19.934,11.587,20.621,11.03,20.918z M13.4,13.868c-0.141,0.059-0.295,0.09-0.457,0.09c-0.66,0-1.197-0.536-1.197-1.197
        c0-0.265,0.088-0.509,0.233-0.708c0.217-0.297,0.567-0.489,0.964-0.489c0.662,0,1.198,0.534,1.198,1.197
        C14.141,13.259,13.836,13.689,13.4,13.868z"/>
</g>
</svg>
