<svg xmlns="http://www.w3.org/2000/svg" x="0px" y="0px" viewBox="0 0 150 148.1" > <path fill="#fff" d="M25.9,51.8c1.8,0,3.5-0.1,5.2-0.5c4.1,5.3,9.1,10.5,15.1,15.2C54.1,72.8,61.9,77.3,67,80v18.9 c-10,3.4-17.3,12.8-17.3,24c0,13.9,11.4,25.3,25.3,25.3s25.3-11.4,25.3-25.3c0-11.1-7.3-20.6-17.3-24V80 c5.1-2.7,12.9-7.1,20.8-13.4c6-4.8,11-9.9,15.1-15.2c1.7,0.4,3.4,0.5,5.2,0.5c14.3,0,25.9-11.6,25.9-25.9C150,11.6,138.4,0,124.1,0 S98.2,11.6,98.2,25.9c0,6.2,2.2,11.9,5.8,16.2c-9.3,11.5-22.4,19-29,22.3c-6.7-3.3-19.7-10.8-29-22.3c3.6-4.5,5.8-10,5.8-16.2 C51.8,11.6,40.2,0,25.9,0C11.6,0,0,11.6,0,25.9S11.6,51.8,25.9,51.8z M124.1,17.3c2.9,0,5.6,1.5,7.1,3.8c1,1.5,1.6,3.1,1.6,5 c0,3.1-1.7,5.8-4.1,7.4c-1.3,0.8-2.9,1.3-4.5,1.3c-4.7,0-8.6-3.9-8.6-8.6S119.4,17.3,124.1,17.3z M75,114.2c3.9,0,7.1,2.5,8.2,6 c0.2,0.8,0.4,1.7,0.4,2.5c0,4.7-3.9,8.6-8.6,8.6c-4.7,0-8.6-3.9-8.6-8.6c0-0.8,0.1-1.7,0.4-2.5C67.9,116.7,71.1,114.2,75,114.2z M18.8,20.9c1.6-2.3,4.1-3.8,7.1-3.8c4.7,0,8.6,3.9,8.6,8.6s-3.9,8.7-8.6,8.7c-1.7,0-3.1-0.5-4.5-1.3c-2.4-1.6-4.1-4.2-4.1-7.4 C17.3,24.1,17.8,22.4,18.8,20.9z"/> </svg>
