<?xml version="1.0" encoding="UTF-8" standalone="no"?>
<svg width="20px" height="20px" viewBox="0 0 20 20" version="1.1" xmlns="http://www.w3.org/2000/svg" xmlns:xlink="http://www.w3.org/1999/xlink">
    <!-- Generator: Sketch 40.3 (33839) - http://www.bohemiancoding.com/sketch -->
    <title>Shape</title>
    <desc>Created with Sketch.</desc>
    <defs></defs>
    <g id="Signup" stroke="none" stroke-width="1" fill="none" fill-rule="evenodd">
        <g id="6-1-1-Set-Password" transform="translate(-793.000000, -478.000000)" fill="#a94442">
            <g id="Group" transform="translate(105.000000, 140.000000)">
                <g transform="translate(320.000000, 100.000000)" id="Icon">
                    <g transform="translate(0.000000, 199.000000)">
                        <g transform="translate(0.000000, 24.000000)">
                            <g transform="translate(366.000000, 13.000000)">
                                <path d="M11,15 L13,15 L13,17 L11,17 L11,15 Z M11,7 L13,7 L13,13 L11,13 L11,7 Z M11.99,2 C6.47,2 2,6.48 2,12 C2,17.52 6.47,22 11.99,22 C17.52,22 22,17.52 22,12 C22,6.48 17.52,2 11.99,2 L11.99,2 Z M12,20 C7.58,20 4,16.42 4,12 C4,7.58 7.58,4 12,4 C16.42,4 20,7.58 20,12 C20,16.42 16.42,20 12,20 L12,20 Z" id="Shape"></path>
                            </g>
                        </g>
                    </g>
                </g>
            </g>
        </g>
    </g>
</svg>
