<?xml version="1.0" encoding="utf-8"?>
<!-- Generator: Adobe Illustrator 21.1.0, SVG Export Plug-In . SVG Version: 6.00 Build 0)  -->
<svg version="1.1" id="Layer_1" xmlns="http://www.w3.org/2000/svg" xmlns:xlink="http://www.w3.org/1999/xlink" x="0px" y="0px"
	 viewBox="0 0 469 469" style="enable-background:new 0 0 469 469;" xml:space="preserve">
<style type="text/css">
	.st0{fill:#162B38;}
	.st1{fill:#EBEDED;}
</style>
<path class="st0" d="M390.2,469H77.8C34.9,469,0,434.1,0,391.2V78.8C0,35.9,34.9,1,77.8,1h312.3c43,0,77.8,34.9,77.8,77.8v312.3
	C468,434.1,433.1,469,390.2,469z"/>
<g>
	<path class="st1" d="M238.5,161.5h-76.5V238h76.5V161.5z M227.5,227.1h-54.7v-54.7h54.7V227.1z"/>
	<path class="st1" d="M353.3,161.5h-87.5c-3.3,0-5.5,2.2-5.5,5.5s2.2,5.5,5.5,5.5h87.5c3.3,0,5.5-2.2,5.5-5.5
		S356.5,161.5,353.3,161.5z"/>
	<path class="st1" d="M353.3,194.3h-87.5c-3.3,0-5.5,2.2-5.5,5.5s2.2,5.5,5.5,5.5h87.5c3.3,0,5.5-2.2,5.5-5.5
		S356.5,194.3,353.3,194.3z"/>
	<path class="st1" d="M353.3,227.1h-87.5c-3.3,0-5.5,2.2-5.5,5.5c0,3.3,2.2,5.5,5.5,5.5h87.5c3.3,0,5.5-2.2,5.5-5.5
		C358.7,229.3,356.5,227.1,353.3,227.1z"/>
	<path class="st1" d="M353.3,259.9H172.9c-3.3,0-5.5,2.2-5.5,5.5c0,3.3,2.2,5.5,5.5,5.5h180.4c3.3,0,5.5-2.2,5.5-5.5
		C358.7,262.1,356.5,259.9,353.3,259.9z"/>
	<path class="st1" d="M254.9,292.7h-82c-3.3,0-5.5,2.2-5.5,5.5s2.2,5.5,5.5,5.5h82c3.3,0,5.5-2.2,5.5-5.5S258.1,292.7,254.9,292.7z"
		/>
	<path class="st1" d="M254.9,325.5h-82c-3.3,0-5.5,2.2-5.5,5.5c0,3.3,2.2,5.5,5.5,5.5h82c3.3,0,5.5-2.2,5.5-5.5
		C260.3,327.7,258.1,325.5,254.9,325.5z"/>
	<path class="st1" d="M254.9,358.3h-82c-3.3,0-5.5,2.2-5.5,5.5s2.2,5.5,5.5,5.5h82c3.3,0,5.5-2.2,5.5-5.5S258.1,358.3,254.9,358.3z"
		/>
	<path class="st1" d="M282.2,369.2h76.5v-76.5h-76.5V369.2z M293.1,303.6h54.7v54.7h-54.7V303.6z"/>
	<path class="st1" d="M391.5,145.1L391.5,145.1V74H129.1v164H74.5v131.2c0,18,14.8,32.8,32.8,32.8h251.5c18,0,32.8-14.8,32.8-32.8
		V145.1L391.5,145.1z M380.6,84.9v54.7H140.1V84.9H380.6z M85.4,369.2V248.9h43.7v120.3c0,12-9.8,21.9-21.9,21.9
		S85.4,381.2,85.4,369.2z M358.7,391.1H131.9c0,0,0,0,0-0.5c1.1-1.1,2.2-2.7,3.3-3.8l0.5-0.5c1.1-1.6,1.6-3.3,2.2-4.4v-0.5
		c0.5-1.6,1.1-3.3,1.6-4.9v-0.5c0.5-2.7,0.5-4.4,0.5-6.6V238v-87.5h240.5v218.7C380.6,381.2,370.8,391.1,358.7,391.1z"/>
	<path class="st1" d="M325.9,95.9H194.7v32.8h131.2V95.9z M315,117.7H205.7v-10.9H315V117.7z"/>
</g>
</svg>
