<?xml version="1.0" encoding="utf-8"?>
<!-- Generator: Adobe Illustrator 21.1.0, SVG Export Plug-In . SVG Version: 6.00 Build 0)  -->
<svg version="1.1" id="Layer_1" xmlns="http://www.w3.org/2000/svg" xmlns:xlink="http://www.w3.org/1999/xlink" x="0px" y="0px"
	 viewBox="0 0 469 469" style="enable-background:new 0 0 469 469;" xml:space="preserve">
<style type="text/css">
	.st0{fill:#162B38;}
	.st1{fill:#82E04A;}
</style>
<path class="st0" d="M390.2,469H77.8C34.9,469,0,434.1,0,391.2V78.8C0,35.9,34.9,1,77.8,1h312.3c43,0,77.8,34.9,77.8,77.8v312.3
	C468,434.1,433.1,469,390.2,469z"/>
<g>
	<g>
		<g>
			<path class="st1" d="M303.9,371.5c-3.1-0.8-6.2,1.1-7,4.2l-5.8,23.1c-0.8,3.1,1.1,6.2,4.2,7.1c0.5,0.1,0.9,0.2,1.4,0.2
				c2.6,0,4.9-1.8,5.6-4.4l5.8-23.1C308.8,375.4,306.9,372.2,303.9,371.5z"/>
			<path class="st1" d="M233,255.6c0.7,0,1.5-0.1,2.2-0.4l63.7-26.3c3-1.2,4.3-4.6,3.1-7.5c-1.2-3-4.6-4.3-7.6-3.1L233,243.5
				l-162-67v-1.9c0-3.2-2.6-5.8-5.8-5.8c-3.2,0-5.8,2.6-5.8,5.8v5.8c0,2.4,1.4,4.5,3.6,5.4l167.8,69.4
				C231.5,255.5,232.3,255.6,233,255.6z"/>
			<path class="st1" d="M301.8,314.8c-1.4-2.8-4.9-4.1-7.7-2.6c-11,5.4-29.4,11.7-55.3,12.6v-51.9c0-3.2-2.6-5.8-5.8-5.8
				s-5.8,2.6-5.8,5.8v51.9c-71.9-2.3-95-45.8-98.4-53.1v-39.3c0-3.2-2.6-5.8-5.8-5.8c-3.2,0-5.8,2.6-5.8,5.8v40.5
				c0,0.7,0.1,1.5,0.4,2.2c1,2.5,25.6,61.5,115.3,61.5c31.3,0,53.3-7.6,66.2-14C302.1,321.2,303.3,317.7,301.8,314.8z"/>
			<path class="st1" d="M319.8,377.1c-3.2,0-5.8,2.6-5.8,5.8v17.4c0,3.2,2.6,5.8,5.8,5.8c3.2,0,5.8-2.6,5.8-5.8v-17.4
				C325.6,379.7,323,377.1,319.8,377.1z"/>
			<path class="st1" d="M400.8,168.8c-3.2,0-5.8,2.6-5.8,5.8v1.9L325.6,205v-10.4l77.4-32.1c2.2-0.9,3.6-3,3.6-5.4s-1.4-4.5-3.6-5.4
				L235.3,82.5c-1.4-0.6-3-0.6-4.4,0L63.1,151.9c-2.2,0.9-3.6,3-3.6,5.4c0,2.4,1.4,4.5,3.6,5.4L230.9,232c0.7,0.3,1.4,0.4,2.2,0.4
				c0.8,0,1.5-0.1,2.2-0.4l60.7-25.1c3-1.2,4.3-4.6,3.1-7.5c-1.2-3-4.6-4.3-7.5-3.1L233,220.4L80.4,157.2L233,94l152.7,63.2
				l-66.4,27.5L255.7,161c0.3-1.2,0.5-2.4,0.5-3.7c0-9.8-10.2-17.4-23.1-17.4s-23.1,7.6-23.1,17.4c0,9.8,10.2,17.4,23.1,17.4
				c5.8,0,11-1.6,15-4.1l66,24.7v18.5l0,0v124c-6.7,2.4-11.6,8.7-11.6,16.3c0,9.6,7.8,17.4,17.4,17.4s17.4-7.8,17.4-17.4
				c0-7.5-4.9-13.9-11.6-16.3v-32.8c16.6-12.5,22.6-29.2,22.8-30c0.2-0.6,0.3-1.2,0.3-1.9v-40.5c0-3.2-2.6-5.8-5.8-5.8
				s-5.8,2.6-5.8,5.8v39.5c-1,2.4-4.5,10-11.6,17.5v-71.9l77.4-31.9c2.2-0.9,3.6-3,3.6-5.4v-5.8C406.6,171.4,404,168.8,400.8,168.8z
				 M233,163c-7.1,0-11.6-3.5-11.6-5.8c0-2.4,4.5-5.8,11.6-5.8c7.1,0,11.6,3.5,11.6,5.8C244.6,159.6,240.1,163,233,163z
				 M319.8,359.7c-3.2,0-5.8-2.6-5.8-5.8s2.6-5.8,5.8-5.8c3.2,0,5.8,2.6,5.8,5.8C325.6,357.1,323,359.7,319.8,359.7z"/>
			<path class="st1" d="M342.8,375.7c-0.7-3.1-3.9-5-7-4.2c-3.1,0.7-5,3.9-4.2,7.1l5.8,23.1c0.7,2.6,3,4.4,5.6,4.4
				c0.5,0,0.9-0.1,1.4-0.2c3.1-0.7,5-3.9,4.2-7.1L342.8,375.7z"/>
		</g>
	</g>
</g>
</svg>
