<svg xmlns="http://www.w3.org/2000/svg" xmlns:xlink="http://www.w3.org/1999/xlink" version="1.1" id="Layer_1" x="0px" y="0px" viewBox="0 0 1041.065 277.583" style="enable-background:new 0 0 1041.065 277.583;" xml:space="preserve">
<style type="text/css">
    .st0{fill:#7E7864;}
    .st1{fill:none;stroke:#7E7864;stroke-width:6;stroke-miterlimit:10;}
    .st2{enable-background:new    ;}
    .st3{fill:none;stroke:#7E7864;stroke-width:5;}
</style>
<g>
    <circle class="st0" cx="148.373" cy="53.003" r="17.198"/>
    <circle class="st0" cx="99.237" cy="53.003" r="17.198"/>
    <circle class="st0" cx="217.802" cy="122.432" r="17.198"/>
    <circle class="st0" cx="30.626" cy="122.432" r="17.198"/>
    <path class="st1" d="M148.373,69.2c0,29.423,23.809,53.231,53.231,53.231"/>
    <path class="st1" d="M100.055,69.2c0,29.423-23.809,53.231-53.231,53.231"/>
</g>
<g>
    <circle class="st0" cx="148.373" cy="242.432" r="17.198"/>
    <circle class="st0" cx="99.237" cy="242.432" r="17.198"/>
    <circle class="st0" cx="217.802" cy="173.003" r="17.198"/>
    <circle class="st0" cx="30.626" cy="173.003" r="17.198"/>
    <path class="st1" d="M201.604,173.004c-29.422,0-53.231,23.808-53.231,53.231"/>
    <path class="st1" d="M46.824,173.004c29.422,0,53.231,23.808,53.231,53.231"/>
</g>
<g class="st2">
    <path class="st0" d="M375.204,171.226c0,32.13-16.196,50.153-45.713,50.153c-9.142,0-16.717-2.351-22.203-7.315h-0.522v38.66   c0,4.964-2.351,7.315-7.315,7.315h-22.465c-4.963,0-7.314-2.351-7.314-7.315V134.656c0-32.13,19.068-50.153,52.766-50.153   s52.766,18.024,52.766,50.153L375.204,171.226L375.204,171.226z M338.11,136.747c0-13.584-5.224-20.375-15.672-20.375   c-10.449,0-15.672,6.791-15.672,20.375v32.39c0,13.584,5.224,20.375,15.672,20.375c10.448,0,15.672-6.791,15.672-20.375V136.747z"/>
    <path class="st0" d="M401.319,218.246c-4.963,0-7.314-2.351-7.314-7.315V42.709c0-4.964,2.351-7.315,7.314-7.315h22.465   c4.963,0,7.314,2.351,7.314,7.315v168.223c0,4.964-2.351,7.315-7.314,7.315h-22.465V218.246z"/>
    <path class="st0" d="M553.34,156.338c0,4.963-2.351,7.314-7.315,7.314h-59.034v2.873c0,8.098,1.567,14.105,4.963,17.762   c3.396,3.397,8.881,5.224,16.195,5.224c7.315,0,14.106-2.09,20.114-6.53c4.44-2.873,7.837-2.352,10.187,1.567l9.142,13.844   c2.352,3.918,1.829,7.315-1.567,10.187c-10.971,8.621-24.031,12.8-38.92,12.8c-38.137,0-57.206-17.762-57.206-53.027v-33.697   c0-32.13,18.547-50.153,51.72-50.153c33.174,0,51.72,18.024,51.72,50.153L553.34,156.338L553.34,156.338z M518.338,138.837v-2.09   c0-13.584-5.224-20.375-15.672-20.375s-15.672,6.791-15.672,20.375v2.09H518.338z"/>
    <path class="st0" d="M642.934,150.591l33.698,59.035c2.873,4.963,0.784,8.62-5.224,8.62h-26.644c-3.918,0-6.791-1.828-8.62-5.485   l-16.717-35.265h-0.522l-16.717,35.265c-1.829,3.657-4.703,5.485-8.62,5.485h-24.816c-5.485,0-8.098-3.657-5.224-8.62   l33.697-59.296l-30.823-54.072c-2.873-4.963-0.261-8.62,5.223-8.62h26.905c3.918,0,6.791,1.829,8.621,5.485l13.844,29.517h0.521   l13.844-29.517c1.829-3.656,4.702-5.485,8.621-5.485h24.553c5.485,0,8.098,3.657,5.224,8.62L642.934,150.591z"/>
    <path class="st0" d="M787.901,137.531v33.697c0,32.13-19.068,50.153-52.765,50.153c-33.958,0-50.936-14.105-50.936-42.578   c0-25.861,16.457-39.966,47.802-39.966h18.808c0-8.098-1.829-13.845-5.224-17.241c-3.397-3.397-8.621-5.224-15.673-5.224   c-7.053,0-14.105,2.09-20.635,6.269c-4.44,2.613-7.575,1.829-9.926-2.09l-8.098-14.889c-2.351-3.918-1.828-7.315,2.09-9.926   c11.754-7.575,25.337-11.233,40.227-11.233C768.833,84.504,787.901,102.788,787.901,137.531z M750.809,169.137v-5.485h-13.584   c-20.898-1.828-20.375,27.95-2.09,25.861C745.585,189.512,750.809,182.721,750.809,169.137z"/>
</g>
<g class="st2">
    <path class="st3" d="M807.262,209.175c-8.359-8.359-8.359-23.51,0-31.868c8.359-8.359,23.51-8.359,31.867,0   c8.36,8.359,8.36,23.51,0,31.868C830.771,217.533,815.62,217.533,807.262,209.175z"/>
    <path class="st3" d="M964.51,131.594v33.697c0,32.13-19.069,50.153-52.766,50.153c-33.957,0-50.936-14.105-50.936-42.578   c0-25.861,16.456-39.966,47.802-39.966h18.807c0-8.098-1.828-13.845-5.223-17.241c-3.396-3.397-8.621-5.224-15.673-5.224   c-7.053,0-14.106,2.09-20.635,6.269c-4.44,2.613-7.575,1.829-9.926-2.09l-8.098-14.889c-2.351-3.918-1.828-7.315,2.09-9.926   c11.754-7.575,25.337-11.233,40.227-11.233C945.44,78.567,964.51,96.852,964.51,131.594z M927.415,163.2v-5.485h-13.582   c-20.898-1.828-20.375,27.95-2.09,25.861C922.192,183.575,927.415,176.784,927.415,163.2z"/>
    <path class="st3" d="M1001.857,64.461c-6.008,0-11.232-1.828-15.15-5.747c-3.918-3.918-5.747-9.142-5.747-15.15   s1.828-10.971,5.747-14.89c3.919-3.918,9.142-6.008,15.15-6.008c6.008,0,10.971,2.09,14.89,6.008   c3.918,3.919,6.008,8.882,6.008,14.89s-2.09,11.233-6.008,15.15C1012.826,62.632,1007.864,64.461,1001.857,64.461z    M990.625,212.309c-4.964,0-7.315-2.351-7.315-7.315V89.016c0-4.964,2.351-7.315,7.315-7.315h22.464   c4.964,0,7.314,2.351,7.314,7.315v115.979c0,4.964-2.35,7.315-7.314,7.315h-22.464V212.309z"/>
</g>
</svg>
